<svg xmlns="http://www.w3.org/2000/svg" xmlns:xlink="http://www.w3.org/1999/xlink" width="426.429" height="342" viewBox="0 0 426.429 342">
  <defs>
    <filter id="Path_2154" x="0" y="78.396" width="426.429" height="192.844" filterUnits="userSpaceOnUse">
      <feOffset dy="3" input="SourceAlpha"/>
      <feGaussianBlur stdDeviation="10" result="blur"/>
      <feFlood flood-opacity="0.231"/>
      <feComposite operator="in" in2="blur"/>
      <feComposite in="SourceGraphic"/>
    </filter>
    <clipPath id="clip-path">
      <rect id="Rectangle_1949" data-name="Rectangle 1949" width="299.484" height="108.683" fill="none"/>
    </clipPath>
  </defs>
  <g id="Group_1610" data-name="Group 1610" transform="translate(-746.571 -334)">
    <circle id="Ellipse_144" data-name="Ellipse 144" cx="171" cy="171" r="171" transform="translate(789.001 334)" fill="#f4f4f4"/>
    <g id="Group_1609" data-name="Group 1609">
      <ellipse id="Ellipse_146" data-name="Ellipse 146" cx="42.515" cy="15.25" rx="42.515" ry="15.25" transform="translate(1022.138 587.5)" fill="#fff"/>
      <ellipse id="Ellipse_149" data-name="Ellipse 149" cx="42.515" cy="15.25" rx="42.515" ry="15.25" transform="translate(961.237 602.75)" fill="#fff"/>
      <ellipse id="Ellipse_150" data-name="Ellipse 150" cx="42.515" cy="15.25" rx="42.515" ry="15.25" transform="translate(1039.947 602.75)" fill="#fff"/>
      <ellipse id="Ellipse_151" data-name="Ellipse 151" cx="42.515" cy="15.25" rx="42.515" ry="15.25" transform="translate(1003.752 618)" fill="#fff"/>
      <ellipse id="Ellipse_148" data-name="Ellipse 148" cx="42.515" cy="15.25" rx="42.515" ry="15.25" transform="translate(1070.972 618)" fill="#fff"/>
      <ellipse id="Ellipse_147" data-name="Ellipse 147" cx="42.515" cy="15.25" rx="42.515" ry="15.25" transform="translate(944.001 618)" fill="#fff"/>
      <ellipse id="Ellipse_152" data-name="Ellipse 152" cx="25.469" cy="11.5" rx="25.469" ry="11.5" transform="translate(828.809 378)" fill="#fff"/>
      <ellipse id="Ellipse_153" data-name="Ellipse 153" cx="25.469" cy="11.5" rx="25.469" ry="11.5" transform="translate(792.326 389.5)" fill="#fff"/>
      <ellipse id="Ellipse_154" data-name="Ellipse 154" cx="25.469" cy="11.5" rx="25.469" ry="11.5" transform="translate(839.479 389.5)" fill="#fff"/>
      <ellipse id="Ellipse_155" data-name="Ellipse 155" cx="25.469" cy="11.5" rx="25.469" ry="11.5" transform="translate(817.795 401)" fill="#fff"/>
      <ellipse id="Ellipse_156" data-name="Ellipse 156" cx="25.469" cy="11.5" rx="25.469" ry="11.5" transform="translate(858.063 401)" fill="#fff"/>
      <ellipse id="Ellipse_157" data-name="Ellipse 157" cx="25.469" cy="11.5" rx="25.469" ry="11.5" transform="translate(782.001 401)" fill="#fff"/>
    </g>
    <g id="Group_1608" data-name="Group 1608">
      <g id="Group_1604" data-name="Group 1604" transform="translate(776.571 439.396)">
        <g transform="matrix(1, 0, 0, 1, -30, -105.4)" filter="url(#Path_2154)">
          <path id="Path_2154-2" data-name="Path 2154" d="M-42.026-13.357H-64.9V15.979H-88.153V-13.357H-159V-29.963l63.655-83.212H-69.7l-59.964,79.522h42.252V-59.668H-64.9v26.015h22.879ZM22,17.824A50,50,0,0,1-5.678,9.983Q-17.856,2.141-24.867-12.9t-7.011-35.7q0-20.665,7.011-35.7t19.189-22.879A50,50,0,0,1,22-115.02a50.456,50.456,0,0,1,27.768,7.842Q62.035-99.337,69.047-84.3t7.011,35.7q0,20.665-7.011,35.7T49.766,9.983A50.456,50.456,0,0,1,22,17.824ZM22-3.025q13.838,0,21.864-11.439T51.888-48.6q0-22.694-8.026-34.134T22-94.171Q8.344-94.171.318-82.731T-7.708-48.6q0,22.694,8.026,34.134T22-3.025ZM207.426-13.357H184.547V15.979H161.3V-13.357H90.449V-29.963L154.1-113.175H179.75L119.786-33.653h42.252V-59.668h22.51v26.015h22.879Z" transform="translate(189 220.42)" fill="#fff"/>
        </g>
      </g>
      <g id="Group_1607" data-name="Group 1607" transform="translate(867.704 367.554)">
        <rect id="Rectangle_1948" data-name="Rectangle 1948" width="16.089" height="3.606" transform="translate(141.665 68.57)" fill="#222221"/>
        <g id="Group_1606" data-name="Group 1606" transform="translate(0 0)">
          <g id="Group_1605" data-name="Group 1605" clip-path="url(#clip-path)">
            <path id="Path_2155" data-name="Path 2155" d="M111.831,45.006H82.887a1.2,1.2,0,0,0-1.2,1.2V65.9a1.2,1.2,0,0,0,1.2,1.2h28.944a1.2,1.2,0,0,0,1.2-1.2V46.2a1.2,1.2,0,0,0-1.2-1.2M88.422,64.369a2.639,2.639,0,1,1,2.639-2.639,2.638,2.638,0,0,1-2.639,2.639m4.158-8.338a.67.67,0,0,1-.668.668H84.934a.669.669,0,0,1-.668-.668v-7.4a.667.667,0,0,1,.668-.666h6.977a.668.668,0,0,1,.668.666Zm10.364,8.327a8.306,8.306,0,1,1,8.307-8.307,8.306,8.306,0,0,1-8.307,8.307" transform="translate(52.393 28.865)" fill="#222221"/>
            <path id="Path_2156" data-name="Path 2156" d="M96.769,48.412a5.455,5.455,0,1,0,5.456,5.456,5.454,5.454,0,0,0-5.456-5.456" transform="translate(58.566 31.049)" fill="#222221"/>
            <path id="Path_2157" data-name="Path 2157" d="M137.868,81.73l.071-.028a.55.55,0,0,0,.391-.684l-3.578-11.869a.56.56,0,0,0-.684-.378l-.1.028L122.129,29.256c-5.423,4.305-10.889,8.57-13.671,10.6l9.911,9.3a11.767,11.767,0,0,1,3.229,5.2l4.991,16.578-.071.028a.577.577,0,0,0-.392.7l3.58,11.867a.552.552,0,0,0,.684.378l.1-.043,1.006,3.327a3.838,3.838,0,0,0,7.352-2.208Z" transform="translate(69.561 18.763)" fill="#222221"/>
            <path id="Path_2158" data-name="Path 2158" d="M218.745,16.781a8.184,8.184,0,0,0-3.215-3.163,6.21,6.21,0,0,0-1.566-.253c-1.61-.123-4.753-.141-11.691-.071q-1.581.02-3.183.064c-8.722.268-17.374,1.174-18.731,1.32a1.681,1.681,0,0,0-.358.079c-1.643.556-14.483,4.916-19.225,6.731a45.971,45.971,0,0,1-11.839,2.231c-.256.018-5.139-1.786-7.8-2.779a11,11,0,0,1-2.588-1.433C137,18.4,133.431,16.622,127.1,16.622c-6.825,0-9.922,1.714-10.956,2.506a6.212,6.212,0,0,1-1.408.789c-2.559,1.069-9.192,3.821-9.474,3.8a45.971,45.971,0,0,1-11.839-2.231c-4.742-1.815-17.582-6.175-19.227-6.731a1.659,1.659,0,0,0-.358-.079c-1.356-.146-10.007-1.052-18.731-1.32q-1.6-.047-3.181-.064c-6.94-.071-10.081-.053-11.693.071a6.207,6.207,0,0,0-1.564.253,8.183,8.183,0,0,0-3.215,3.163l-.039,0a.978.978,0,0,0-.089.538c.079.34.368,1.195.6,1.858a1.673,1.673,0,0,0,1.175,1.087c3.068.78,16.806.543,34.17,5.479,0,0,26.278,21.154,30.1,23.593,2.121,1.357,3.563,2.277,3.9,2.477a14.807,14.807,0,0,0,6.9,2.044h3.15l1.349,3.35a1.857,1.857,0,0,0,1.722,1.164h16.967a1.854,1.854,0,0,0,1.677-1.067l1.613-3.447h3.373a14.8,14.8,0,0,0,6.9-2.044c.343-.2,1.786-1.119,3.906-2.477,3.823-2.439,30.1-23.595,30.1-23.595,17.364-4.934,31.1-4.7,34.17-5.477a1.676,1.676,0,0,0,1.175-1.087c.23-.663.52-1.518.6-1.858a.949.949,0,0,0-.089-.538l-.038,0" transform="translate(22.646 8.5)" fill="#222221"/>
            <path id="Path_2159" data-name="Path 2159" d="M60.425,68.784l-.084-.028a.568.568,0,0,0-.7.378L56.078,81a.544.544,0,0,0,.376.686l.071.028-.965,3.242a3.839,3.839,0,1,0,7.353,2.209l.991-3.327.1.043a.554.554,0,0,0,.684-.378l3.58-11.869a.565.565,0,0,0-.392-.7l-.069-.03L72.8,54.33a11.9,11.9,0,0,1,3.229-5.2l9.925-9.3c-2.782-2.012-8.207-6.262-13.63-10.554Z" transform="translate(35.528 18.779)" fill="#222221"/>
            <path id="Path_2160" data-name="Path 2160" d="M67.453,6.477a.724.724,0,0,0,.724.724h.31V9.768H65.694a2.818,2.818,0,0,0-2.818,2.82V20.51c1.61-.123,4.752-.143,11.691-.072,1.054.013,2.114.033,3.181.066V12.588a2.818,2.818,0,0,0-2.818-2.82h-2.8V7.2h.3a.724.724,0,0,0,.725-.724v-2.4l0-.018C77,5.354,83.665,7.915,85.93,8.159c2.991.323,11.641-1.05,19.158-2.183,5.934-.893,26.777-4.053,35.294-5.344A.27.27,0,0,0,140.341.1C132.5.133,114.283.2,106.219.075A214.982,214.982,0,0,0,84.192.481,80.549,80.549,0,0,0,75.1,1.692a20.474,20.474,0,0,1-2.638.655,2.729,2.729,0,0,0-4.415.13,13.86,13.86,0,0,1-2.531-.55A80.625,80.625,0,0,0,56.422.716,215.03,215.03,0,0,0,34.393.31C26.329.436,8.116.368.272.33A.27.27,0,0,0,.229.867c8.517,1.292,29.361,4.451,35.3,5.346,7.517,1.131,16.166,2.5,19.156,2.181,2.265-.245,8.931-2.805,12.771-4.105Z" transform="translate(0 0)" fill="#222221"/>
            <path id="Path_2161" data-name="Path 2161" d="M237.133.33c-7.844.038-26.058.105-34.121-.02a215.615,215.615,0,0,0-22.029.4,80.811,80.811,0,0,0-9.093,1.213,13.787,13.787,0,0,1-2.531.548,2.728,2.728,0,0,0-4.415-.128,20.8,20.8,0,0,1-2.638-.655A80.735,80.735,0,0,0,153.214.479a215.566,215.566,0,0,0-22.027-.4C123.122.2,104.908.133,97.064.1a.27.27,0,0,0-.041.537c8.517,1.292,29.359,4.451,35.294,5.344,7.517,1.133,16.167,2.506,19.158,2.183,2.265-.245,8.929-2.807,12.77-4.107l0,.02v2.4a.724.724,0,0,0,.724.724h.3V9.768h-2.794a2.819,2.819,0,0,0-2.82,2.82V20.5q1.6-.047,3.183-.064c6.938-.071,10.081-.053,11.691.071V12.588a2.818,2.818,0,0,0-2.82-2.82h-2.794V7.2h.31a.724.724,0,0,0,.725-.724V4.287c3.841,1.3,10.506,3.862,12.77,4.107,2.992.323,11.641-1.05,19.158-2.183,5.935-.893,26.779-4.053,35.294-5.344a.27.27,0,0,0-.041-.537" transform="translate(62.08 0)" fill="#222221"/>
          </g>
        </g>
      </g>
    </g>
  </g>
</svg>
