<svg xmlns="http://www.w3.org/2000/svg" xmlns:xlink="http://www.w3.org/1999/xlink" width="591.04" height="419.936" viewBox="0 0 591.04 419.936">
  <defs>
    <clipPath id="clip-path">
      <rect id="Rectangle_1947" data-name="Rectangle 1947" width="591.04" height="419.936" fill="none"/>
    </clipPath>
    <clipPath id="clip-path-3">
      <path id="Path_2145" data-name="Path 2145" d="M212.53,0c-25.046.035-42.676,24.483-52.419,47.556s-17.546,49.366-38.534,63.032C97.3,126.393,63.8,119.436,38.41,133.371c-30.988,17-38.48,61.757-22.195,93.129,14.531,27.991,44.143,28.983,61.968,52.082,29.129,37.748,7.275,87.123,53.28,95.082,8.539,1.477,16.936-1.319,25.378-4.115,7.289-2.415,14.613-4.83,22.088-4.493,47.348,2.133,83.617,54.851,129.184,54.881h.1a58.581,58.581,0,0,0,8.844-.678c27.989-4.3,47.992-28.863,63.023-52.861s29.313-50.58,54.251-64c22.914-12.325,50.988-11.231,74.553-22.262A78.309,78.309,0,0,0,530.6,153.389c-23.631-23.245-62.687-32.805-74.026-63.953C451.316,75,453.367,58.268,445.99,44.79c-9.04-16.515-30-23.208-48.772-21.763s-36.338,9.313-54.2,15.267-37.529,10.013-55.307,3.817C260.167,32.512,241.768.027,212.62,0Z" transform="translate(-7.839 -0.001)" fill="none"/>
    </clipPath>
    <clipPath id="clip-path-4">
      <rect id="Rectangle_1942" data-name="Rectangle 1942" width="480.914" height="95.215" fill="none"/>
    </clipPath>
    <clipPath id="clip-path-5">
      <rect id="Rectangle_1943" data-name="Rectangle 1943" width="481.621" height="138.069" fill="none"/>
    </clipPath>
    <clipPath id="clip-path-6">
      <rect id="Rectangle_1944" data-name="Rectangle 1944" width="575.097" height="90.374" fill="none"/>
    </clipPath>
    <clipPath id="clip-path-8">
      <path id="Path_2153" data-name="Path 2153" d="M607.413,513.228c1.707,25.74,38.751,14.8,37.6-7.567-.579-11.318-7.317-16.052-14.939-16.051-10.893,0-23.59,9.675-22.665,23.618" transform="translate(-607.366 -489.61)" fill="none"/>
    </clipPath>
    <filter id="Path_2154" x="52.572" y="108.595" width="440.592" height="197.979" filterUnits="userSpaceOnUse">
      <feOffset dy="3" input="SourceAlpha"/>
      <feGaussianBlur stdDeviation="10" result="blur"/>
      <feFlood flood-opacity="0.231"/>
      <feComposite operator="in" in2="blur"/>
      <feComposite in="SourceGraphic"/>
    </filter>
    <clipPath id="clip-path-10">
      <rect id="Rectangle_1949" data-name="Rectangle 1949" width="364.558" height="132.298" fill="none"/>
    </clipPath>
  </defs>
  <g id="Group_1608" data-name="Group 1608" transform="translate(-687.132 -297.5)">
    <g id="Group_1604" data-name="Group 1604" transform="translate(0 6)">
      <g id="Group_1603" data-name="Group 1603" transform="translate(687.132 291.5)">
        <g id="Group_1602" data-name="Group 1602" clip-path="url(#clip-path)">
          <g id="Group_1583" data-name="Group 1583">
            <g id="Group_1582" data-name="Group 1582" clip-path="url(#clip-path)">
              <path id="Path_2141" data-name="Path 2141" d="M16.216,226.5C-.07,195.128,7.422,150.375,38.41,133.37c25.392-13.934,58.895-6.978,83.167-22.782,20.988-13.666,28.79-39.96,38.534-63.031S187.484.035,212.53,0c29.2-.041,47.609,32.5,75.182,42.111,17.778,6.2,37.446,2.136,55.307-3.818s35.427-13.821,54.2-15.266,39.732,5.247,48.771,21.762c7.378,13.479,5.327,30.208,10.583,44.646,11.339,31.147,50.4,40.709,74.026,63.953A78.31,78.31,0,0,1,508.881,280.14c-23.565,11.03-51.639,9.936-74.553,22.262-24.939,13.414-39.22,40-54.251,63.995s-35.034,48.566-63.023,52.862c-49.868,7.654-87.725-51.933-138.125-54.2-16.132-.726-31.554,11.362-47.465,8.609-46.005-7.959-24.151-57.333-53.28-95.082-17.825-23.1-47.437-24.092-61.968-52.083" transform="translate(-2.521 0)" fill="#caedf8"/>
            </g>
          </g>
          <g id="Group_1594" data-name="Group 1594" transform="translate(5.317 0.001)">
            <g id="Group_1593" data-name="Group 1593" clip-path="url(#clip-path-3)">
              <g id="Group_1586" data-name="Group 1586" transform="translate(24.834 20.158)" opacity="0.4">
                <g id="Group_1585" data-name="Group 1585">
                  <g id="Group_1584" data-name="Group 1584" clip-path="url(#clip-path-4)">
                    <path id="Path_2142" data-name="Path 2142" d="M524.449,95.382c3.548,7.067-3.855,15.7-11.524,18.774-19.789,7.934-41.895.194-62.694-4.491a214.728,214.728,0,0,0-117.088,6.656c-4.4,1.532-9.022,3.234-13.6,2.36-13.156-2.514-13.854-21.459-22.971-31.271-14.835-15.963-43.058-1.352-62.7-10.8-2.425-1.166-4.7-2.7-7.278-3.46-3.529-1.039-7.346-.536-10.866.532-14.8,4.488-24.774,17.836-36.332,28.114a102.908,102.908,0,0,1-32.465,19.518c-6.952,2.582-14.432,4.423-21.757,3.261s-14.448-5.878-16.7-12.945c-2.333-7.323.754-15.819-2.625-22.721-3.713-7.584-13.3-9.772-21.636-11.087L56.464,73.449c-3.027-.478-6.212-1.024-8.576-2.973-5.258-4.337-3.658-12.769-.683-18.9a69.49,69.49,0,0,1,7.4-11.975,131.625,131.625,0,0,1,52.377-9.856c11.136.211,24.653,3.883,27.228,14.719,2.262,9.519-5.447,18.168-11.975,25.456s-12.686,17.939-7.466,26.214c3.271,5.184,9.917,7.132,16.039,7.428,24.735,1.2,45.566-17.089,63.887-33.75s40.581-33.949,65.059-30.2c1.816.278,3.761.759,4.917,2.187,2.19,2.707.257,6.616-.364,10.043-1.42,7.836,5.169,15.326,12.746,17.777s15.794,1.156,23.648-.161l36.41-6.108c7.856-1.318,16.5-2.5,23.3,1.637,4.394,2.669,7.295,7.156,10.8,10.918C388.562,94.516,418.05,93.54,443.081,89s52.2-10.973,74.821.677a15.183,15.183,0,0,1,6.023,4.8,9.257,9.257,0,0,1,.524.91" transform="translate(-44.449 -29.718)" fill="#fff"/>
                  </g>
                </g>
              </g>
              <g id="Group_1589" data-name="Group 1589" transform="translate(-5.317 216.374)" opacity="0.4">
                <g id="Group_1588" data-name="Group 1588">
                  <g id="Group_1587" data-name="Group 1587" clip-path="url(#clip-path-5)">
                    <path id="Path_2143" data-name="Path 2143" d="M297.594,394.87c7.863,8.971,19.649,13.448,31.253,16.21,39.279,9.35,80.311,2.712,120.52-.974,7.049-.646,14.394-1.161,20.985,1.418s12.159,9.2,11.149,16.206c-1.235,8.566-10.794,13-19.2,15.055a129.79,129.79,0,0,1-46.044,2.783c-22.479-2.682-44.2-11.246-66.836-11.451-29.217-.266-57.754,13.438-86.764,9.957-8.287-.994-16.883-3.7-22.277-10.069-3.816-4.5-5.659-10.408-9.415-14.962-8.173-9.907-23.591-10.866-35.465-5.972s-21.17,14.325-30.566,23.079-19.82,17.355-32.415,19.86c-21.811,4.34-46.4-6.332-68.542-7.039-20.582-.657-45.277,7.171-56.73-14.99-12.723-24.619-8.1-56.741,9.245-77.646,35.784-43.137,124.245-51.095,165.964-12.4,18.457,17.121,28.67,30.525,56.152,30.918,10.862.155,22.1-2.551,32.9-.519,13.374,2.517,17.727,10.993,26.086,20.531" transform="translate(0 -318.976)" fill="#fff"/>
                  </g>
                </g>
              </g>
              <g id="Group_1592" data-name="Group 1592" transform="translate(10.625 125.097)" opacity="0.4">
                <g id="Group_1591" data-name="Group 1591" transform="translate(0)">
                  <g id="Group_1590" data-name="Group 1590" clip-path="url(#clip-path-6)">
                    <path id="Path_2144" data-name="Path 2144" d="M307.72,247.414c-10.614-2.542-22.186-4.708-31.883-1.805-7.471,2.237-12.715,7.19-19.772,10.016-15.347,6.148-35.358,1.181-52.811-4.068A1900.611,1900.611,0,0,1,23.5,187.546c3.513-3.9,11.374-3.468,17.865-2.35,29.423,5.062,56.978,16.527,85.217,25.617s59.135,15.952,87.236,11.071c9.594-1.666,18.553-4.659,28.133-6.354,46.023-8.142,95.723,14.369,144.307,17.283,8.084.485,16.33.4,23.6-1.7,17.5-5.037,27.916-15.7,47.863-17.693,18.374-1.833,37.867,1.616,56.116,5.887,27.068,6.334,60.5,13.471,84.755,25.44-32.486-.986-66.675-10.872-99.586-13.47-19.414-1.532-49.035-6.251-42.455,14.378,2.613,8.2,12.289,15.95,4.746,23.684-7.606,7.8-29.177,5.248-40.635,4.221-38.67-3.466-75.5-17.179-112.951-26.148" transform="translate(-23.502 -184.417)" fill="#fff"/>
                  </g>
                </g>
              </g>
            </g>
          </g>
          <g id="Group_1596" data-name="Group 1596">
            <g id="Group_1595" data-name="Group 1595" clip-path="url(#clip-path)">
              <path id="Path_2146" data-name="Path 2146" d="M397.586,251.543c.045.17-.624.437-1.416,1.222a8.323,8.323,0,0,0-1.207,1.516c-.095.156-.189.317-.277.485l-.13.256c-.017.026-.054.117-.092.208l-.109.262a9.752,9.752,0,0,0-.427,1.394q-.211.86-.425,1.741-.092.37-.18.736c-.174-1-.4-2.44-.592-3.4a4.281,4.281,0,0,0-.189-.587l-.094-.265-.058-.114a4.108,4.108,0,0,0-.244-.434,4.813,4.813,0,0,0-1.266-1.242c-.883-.605-1.513-.948-1.446-1.1.052-.128.756-.064,1.841.416a4.635,4.635,0,0,1,1.711,1.314,4.535,4.535,0,0,1,.358.539l.1.168.021.03c.02-.037-.009.036.04-.054l.229-.4c.113-.188.233-.366.355-.537a6.68,6.68,0,0,1,1.571-1.555c1.059-.729,1.911-.731,1.927-.593" transform="translate(-125.264 -80.889)" fill="#3bb6d5"/>
              <path id="Path_2147" data-name="Path 2147" d="M347.779,173.294c.045.168-.657.442-1.49,1.263a8.11,8.11,0,0,0-1.26,1.589c-.1.164-.2.332-.284.511l-.069.133-.107.249c-.074.183-.151.342-.227.552-.281.966-.616,2.424-.875,3.46l-.043-.25q-.167-.954-.329-1.884c-.056-.354-.117-.627-.176-.9a7.092,7.092,0,0,0-.188-.785,2.751,2.751,0,0,0-.119-.313l-.072-.176-.129-.269c-.082-.18-.191-.342-.285-.505a7.079,7.079,0,0,0-1.344-1.536c-.907-.776-1.61-1.134-1.543-1.3.044-.13.872-.046,2.019.642A6.192,6.192,0,0,1,343,175.369a5.976,5.976,0,0,1,.376.584c.057.1.119.208.172.317l.06.132a1.438,1.438,0,0,0,.184-.266,6.6,6.6,0,0,1,.362-.568,6.735,6.735,0,0,1,1.63-1.635c1.1-.764,1.981-.777,2-.639" transform="translate(-109.118 -55.674)" fill="#3bb6d5"/>
              <path id="Path_2148" data-name="Path 2148" d="M250.331,446.726c.051.19-.745.5-1.688,1.431a9.2,9.2,0,0,0-1.429,1.8c-.111.186-.221.376-.321.579l-.077.151-.121.282c-.084.208-.172.387-.257.625-.318,1.094-.7,2.747-.992,3.92l-.049-.283q-.189-1.081-.372-2.135c-.064-.4-.132-.711-.2-1.02a8.038,8.038,0,0,0-.213-.889,3.284,3.284,0,0,0-.136-.356l-.081-.2-.147-.3c-.093-.2-.215-.387-.322-.573a8.043,8.043,0,0,0-1.523-1.74c-1.027-.879-1.824-1.285-1.748-1.469.05-.147.988-.052,2.287.728a6.777,6.777,0,0,1,2.4,2.465c.064.119.134.236.194.36l.069.149a1.612,1.612,0,0,0,.208-.3,7.4,7.4,0,0,1,.411-.643,7.648,7.648,0,0,1,1.846-1.853c1.245-.866,2.245-.88,2.264-.724" transform="translate(-77.408 -143.617)" fill="#3bb6d5"/>
              <path id="Path_2149" data-name="Path 2149" d="M268.542,220.429c.056.208-.813.545-1.827,1.57a9.93,9.93,0,0,0-1.53,1.985c-.119.2-.237.414-.343.636l-.083.166-.135.326c-.09.234-.187.414-.276.7-.174.648-.354,1.285-.542,2.1l-.52,2.141-.065-.368q-.211-1.2-.417-2.375c-.071-.449-.149-.747-.224-1.105a6.953,6.953,0,0,0-.241-.957c-.043-.142-.1-.254-.155-.381l-.072-.176-.165-.33c-.109-.22-.237-.423-.36-.623a8.96,8.96,0,0,0-1.682-1.9c-1.126-.961-2-1.4-1.914-1.606.054-.161,1.08-.054,2.5.794a7.788,7.788,0,0,1,2.163,1.957,7.551,7.551,0,0,1,.475.718l.218.389.094.2a1.379,1.379,0,0,0,.212-.3,8.648,8.648,0,0,1,2.427-2.753c1.348-.963,2.444-.977,2.463-.808" transform="translate(-82.983 -70.82)" fill="#3bb6d5"/>
              <path id="Path_2150" data-name="Path 2150" d="M299.352,344.281c.147.178-.711,1-1.945,2.3a10.313,10.313,0,0,0-1.739,2.5c-.26.516-.507,1.082-.747,1.688l-.29.743-.368.971-.745,1.986c-.291-.669-.57-1.353-.845-2.026-.142-.334-.277-.69-.422-1l-.309-.613a11.867,11.867,0,0,0-.963-1.506,11.583,11.583,0,0,0-2.175-2.137c-1.428-1.072-2.44-1.663-2.338-1.874.081-.172,1.233.047,2.936.959a9.872,9.872,0,0,1,2.677,2.149,11.078,11.078,0,0,1,1.185,1.671l.128.233c.029.054.031.056.031.056a1.488,1.488,0,0,0,.1-.2,16.257,16.257,0,0,1,.894-1.787,9.186,9.186,0,0,1,2.24-2.612c1.518-1.181,2.571-1.652,2.693-1.5" transform="translate(-92.142 -110.733)" fill="#3bb6d5"/>
              <path id="Path_2151" data-name="Path 2151" d="M645.018,505.661c1.146,22.365-35.9,33.307-37.605,7.567-1.572-23.7,36.2-35.063,37.605-7.567" transform="translate(-195.365 -157.488)" fill="#caedf8"/>
            </g>
          </g>
          <g id="Group_1601" data-name="Group 1601" transform="translate(412.001 332.122)">
            <g id="Group_1600" data-name="Group 1600" clip-path="url(#clip-path-8)">
              <g id="Group_1599" data-name="Group 1599" transform="translate(-412.001 -115.748)" opacity="0.4">
                <g id="Group_1598" data-name="Group 1598">
                  <g id="Group_1597" data-name="Group 1597" clip-path="url(#clip-path-5)">
                    <path id="Path_2152" data-name="Path 2152" d="M297.594,394.87c7.863,8.971,19.649,13.448,31.253,16.21,39.279,9.35,80.311,2.712,120.52-.974,7.049-.646,14.394-1.161,20.985,1.418s12.159,9.2,11.149,16.206c-1.235,8.566-10.794,13-19.2,15.055a129.79,129.79,0,0,1-46.044,2.783c-22.479-2.682-44.2-11.246-66.836-11.451-29.217-.266-57.754,13.438-86.764,9.957-8.287-.994-16.883-3.7-22.277-10.069-3.816-4.5-5.659-10.408-9.415-14.962-8.173-9.907-23.591-10.866-35.465-5.972s-21.17,14.325-30.566,23.079-19.82,17.355-32.415,19.86c-21.811,4.34-46.4-6.332-68.542-7.039-20.582-.657-45.277,7.171-56.73-14.99-12.723-24.619-8.1-56.741,9.245-77.646,35.784-43.137,124.245-51.095,165.964-12.4,18.457,17.121,28.67,30.525,56.152,30.918,10.862.155,22.1-2.551,32.9-.519,13.374,2.517,17.727,10.993,26.086,20.531" transform="translate(0 -318.976)" fill="#fff"/>
                  </g>
                </g>
              </g>
            </g>
          </g>
        </g>
      </g>
      <g transform="matrix(1, 0, 0, 1, 687.13, 291.5)" filter="url(#Path_2154)">
        <path id="Path_2154-2" data-name="Path 2154" d="M-37.5-9.428H-61.268v30.47H-85.414V-9.428H-159V-26.675L-92.888-113.1h26.638l-62.282,82.6h43.885V-57.529h23.38v27.021H-37.5Zm66.5,32.387A51.935,51.935,0,0,1,.248,14.814Q-12.4,6.67-19.683-8.949t-7.282-37.082q0-21.463,7.282-37.082T.248-106.875a51.935,51.935,0,0,1,28.746-8.145,52.406,52.406,0,0,1,28.841,8.145q12.744,8.145,20.026,23.763t7.282,37.082q0,21.463-7.282,37.082T57.835,14.814A52.406,52.406,0,0,1,28.993,22.959Zm0-21.655Q43.366,1.3,51.7-10.578t8.336-35.453q0-23.571-8.336-35.453T28.993-93.365q-14.181,0-22.517,11.882T-1.86-46.031q0,23.571,8.336,35.453T28.993,1.3Zm192.6-10.732H197.826v30.47H173.68V-9.428H100.091V-26.675L166.206-113.1h26.638l-62.282,82.6h43.885V-57.529h23.38v27.021h23.763Z" transform="translate(241.58 250.61)" fill="#fff"/>
      </g>
    </g>
    <g id="Group_1607" data-name="Group 1607" transform="translate(881.721 347.916)">
      <rect id="Rectangle_1948" data-name="Rectangle 1948" width="19.585" height="4.39" transform="translate(172.447 83.469)" fill="#222221"/>
      <g id="Group_1606" data-name="Group 1606" transform="translate(0 0)">
        <g id="Group_1605" data-name="Group 1605" clip-path="url(#clip-path-10)">
          <path id="Path_2155" data-name="Path 2155" d="M118.381,45.006H83.148a1.459,1.459,0,0,0-1.459,1.459V70.439A1.459,1.459,0,0,0,83.148,71.9h35.233a1.457,1.457,0,0,0,1.457-1.459V46.465a1.457,1.457,0,0,0-1.457-1.459m-28.5,23.571A3.212,3.212,0,1,1,93.1,65.364a3.211,3.211,0,0,1-3.213,3.213m5.061-10.15a.815.815,0,0,1-.813.813H85.639a.814.814,0,0,1-.813-.813V49.418a.812.812,0,0,1,.813-.811h8.494a.813.813,0,0,1,.813.811Zm12.615,10.136a10.111,10.111,0,1,1,10.112-10.112,10.111,10.111,0,0,1-10.112,10.112" transform="translate(81.527 44.916)" fill="#222221"/>
          <path id="Path_2156" data-name="Path 2156" d="M97.954,48.412a6.64,6.64,0,1,0,6.641,6.641,6.639,6.639,0,0,0-6.641-6.641" transform="translate(91.134 48.315)" fill="#222221"/>
          <path id="Path_2157" data-name="Path 2157" d="M144.258,93.133l.086-.034a.669.669,0,0,0,.476-.833l-4.356-14.448a.682.682,0,0,0-.833-.46l-.12.034L125.1,29.256c-6.6,5.241-13.255,10.432-16.641,12.9L120.522,53.47a14.324,14.324,0,0,1,3.93,6.33l6.076,20.18-.086.034a.7.7,0,0,0-.478.851l4.358,14.446a.672.672,0,0,0,.833.46l.12-.052,1.225,4.05a4.672,4.672,0,0,0,8.949-2.687Z" transform="translate(108.243 29.197)" fill="#222221"/>
          <path id="Path_2158" data-name="Path 2158" d="M258.6,17.548a9.962,9.962,0,0,0-3.914-3.85,7.559,7.559,0,0,0-1.906-.308c-1.96-.15-5.786-.172-14.232-.086q-1.924.024-3.874.078c-10.617.326-21.149,1.429-22.8,1.606a2.046,2.046,0,0,0-.436.1c-2,.677-17.63,5.984-23.4,8.194-5.151,1.974-12.228,2.573-14.412,2.715-.312.022-6.256-2.174-9.5-3.383a13.385,13.385,0,0,1-3.151-1.744c-1.872-1.351-6.222-3.513-13.934-3.513-8.308,0-12.078,2.086-13.337,3.051a7.562,7.562,0,0,1-1.714.961c-3.115,1.3-11.189,4.651-11.533,4.627-2.184-.142-9.261-.741-14.412-2.715-5.772-2.21-21.4-7.517-23.4-8.194a2.019,2.019,0,0,0-.436-.1c-1.65-.178-12.182-1.281-22.8-1.606q-1.948-.057-3.872-.078c-8.448-.086-12.272-.064-14.234.086a7.556,7.556,0,0,0-1.9.308,9.961,9.961,0,0,0-3.914,3.85l-.048.006a1.191,1.191,0,0,0-.108.655c.1.414.448,1.455.729,2.262a2.036,2.036,0,0,0,1.431,1.323c3.734.949,20.458.661,41.595,6.669,0,0,31.988,25.75,36.642,28.719,2.581,1.652,4.338,2.771,4.753,3.015a18.024,18.024,0,0,0,8.4,2.488h3.834l1.642,4.078a2.261,2.261,0,0,0,2.1,1.417H157.1a2.257,2.257,0,0,0,2.042-1.3l1.964-4.2h4.106a18.016,18.016,0,0,0,8.4-2.488c.418-.244,2.174-1.363,4.755-3.015C183.016,54.213,215,28.461,215,28.461c21.137-6.006,37.86-5.718,41.595-6.667a2.04,2.04,0,0,0,1.431-1.323c.28-.807.633-1.848.727-2.262a1.155,1.155,0,0,0-.108-.655l-.046-.006" transform="translate(35.239 13.227)" fill="#222221"/>
          <path id="Path_2159" data-name="Path 2159" d="M61.518,77.367l-.1-.034a.692.692,0,0,0-.851.46L56.227,92.238a.662.662,0,0,0,.458.835l.086.034L55.6,97.054a4.673,4.673,0,1,0,8.951,2.689l1.207-4.05.12.052a.674.674,0,0,0,.833-.46l4.358-14.448a.688.688,0,0,0-.478-.849l-.084-.036,6.074-20.18a14.491,14.491,0,0,1,3.93-6.33L92.589,42.128C89.2,39.679,82.6,34.506,76,29.281Z" transform="translate(55.284 29.222)" fill="#222221"/>
          <path id="Path_2160" data-name="Path 2160" d="M82.11,7.884a.881.881,0,0,0,.881.881h.378V11.89h-3.4a3.43,3.43,0,0,0-3.431,3.433v9.644c1.96-.15,5.784-.174,14.232-.088,1.283.016,2.573.04,3.872.08V15.323a3.43,3.43,0,0,0-3.431-3.433h-3.4V8.765h.37a.882.882,0,0,0,.883-.881V4.957l-.006-.022c4.675,1.582,12.789,4.7,15.547,5,3.64.394,14.17-1.279,23.321-2.657,7.223-1.087,32.6-4.933,42.963-6.506a.328.328,0,0,0-.05-.653c-9.551.046-31.72.128-41.537-.024-12.693-.2-19.878-.1-26.813.494A98.051,98.051,0,0,0,91.417,2.06a24.923,24.923,0,0,1-3.211.8,3.322,3.322,0,0,0-5.375.158,16.871,16.871,0,0,1-3.081-.669A98.144,98.144,0,0,0,68.681.871C61.744.28,54.559.182,41.866.377,32.05.531,9.88.447.331.4a.329.329,0,0,0-.052.653C10.647,2.627,36.02,6.473,43.244,7.562c9.151,1.377,19.678,3.049,23.319,2.655,2.757-.3,10.871-3.415,15.547-5Z" transform="translate(0.001 0)" fill="#222221"/>
          <path id="Path_2161" data-name="Path 2161" d="M267.627.4c-9.548.046-31.72.128-41.535-.024-12.693-.2-19.878-.1-26.815.492a98.37,98.37,0,0,0-11.069,1.477,16.783,16.783,0,0,1-3.081.667,3.32,3.32,0,0,0-5.375-.156,25.324,25.324,0,0,1-3.211-.8A98.276,98.276,0,0,0,165.473.583C158.538-.006,151.353-.1,138.66.092c-9.816.152-31.988.07-41.537.024a.328.328,0,0,0-.05.653c10.368,1.572,35.738,5.419,42.963,6.506,9.151,1.379,19.68,3.051,23.321,2.657,2.757-.3,10.869-3.417,15.545-5l0,.024V7.884a.881.881,0,0,0,.881.881h.37V11.89h-3.4a3.432,3.432,0,0,0-3.433,3.433v9.634q1.951-.057,3.874-.078c8.446-.086,12.272-.064,14.232.086V15.323a3.431,3.431,0,0,0-3.433-3.433h-3.4V8.765h.378a.882.882,0,0,0,.883-.881V5.219c4.675,1.584,12.789,4.7,15.545,5,3.642.394,14.17-1.279,23.321-2.657,7.225-1.087,32.6-4.933,42.963-6.506a.328.328,0,0,0-.05-.653" transform="translate(96.6 0)" fill="#222221"/>
        </g>
      </g>
    </g>
  </g>
</svg>
