<svg xmlns="http://www.w3.org/2000/svg" width="16.607" height="15.666" viewBox="0 0 16.607 15.666">
  <path id="Icon_ionic-md-arrow-round-back" data-name="Icon ionic-md-arrow-round-back" d="M15.168,6.323H5.069L8.986,2.576a1.561,1.561,0,0,0,0-2.133,1.4,1.4,0,0,0-2.039,0L.425,6.766A1.437,1.437,0,0,0,0,7.823v.019A1.437,1.437,0,0,0,.425,8.9l6.517,6.324a1.4,1.4,0,0,0,2.039,0,1.561,1.561,0,0,0,0-2.133L5.064,9.343h10.1a1.477,1.477,0,0,0,1.444-1.51A1.462,1.462,0,0,0,15.168,6.323Z" transform="translate(16.607 15.666) rotate(180)" fill="#dda000"/>
</svg>
