<?xml version="1.0" encoding="UTF-8"?>
<svg xmlns="http://www.w3.org/2000/svg" width="26.452" height="30.619" viewBox="0 0 26.452 30.619">
  <g id="Group_1106" data-name="Group 1106" transform="translate(-142.966 -373.775)">
    <path id="Path_2151" data-name="Path 2151" d="M21.45,30.5a1,1,0,0,1-.707-.293l-3.45-3.45a1,1,0,0,1,0-1.414l8.05-8.05a1,1,0,0,1,1.414,0l3.45,3.45a1,1,0,0,1,0,1.414l-8.05,8.05A1,1,0,0,1,21.45,30.5Zm-2.036-4.45,2.036,2.036,6.636-6.636L26.05,19.414Z" transform="matrix(-0.259, -0.966, 0.966, -0.259, 144.357, 411.13)"></path>
    <path id="Path_2152" data-name="Path 2152" d="M15.65,22.4a1,1,0,0,1-.2-.019L6.829,20.656a1,1,0,0,1-.776-.746L2.028,3.235A1,1,0,0,1,3.235,2.028L19.91,6.053a1,1,0,0,1,.746.776l1.725,8.625a1,1,0,0,1-.273.9l-5.75,5.75A1,1,0,0,1,15.65,22.4Zm-7.8-3.58,7.474,1.495,4.993-4.993L18.82,7.847,4.356,4.356Z" transform="matrix(-0.259, -0.966, 0.966, -0.259, 146.832, 406.844)"></path>
    <path id="Path_2153" data-name="Path 2153" d="M11.724,12.724a1,1,0,0,1-.707-.293L2.293,3.707A1,1,0,0,1,3.707,2.293l8.724,8.724a1,1,0,0,1-.707,1.707Z" transform="matrix(-0.259, -0.966, 0.966, -0.259, 146.832, 406.844)"></path>
    <path id="Path_2154" data-name="Path 2154" d="M15.8,12.5a3.3,3.3,0,1,1-3.3,3.3A3.3,3.3,0,0,1,15.8,12.5Zm0,4.6a1.3,1.3,0,1,0-1.3-1.3A1.3,1.3,0,0,0,15.8,17.1Z" transform="matrix(-0.259, -0.966, 0.966, -0.259, 145.099, 409.844)"></path>
  </g>
</svg>
