<svg id="Group_732" data-name="Group 732" xmlns="http://www.w3.org/2000/svg" xmlns:xlink="http://www.w3.org/1999/xlink" width="57.243" height="43.983" viewBox="0 0 57.243 43.983">
  <defs>
    <clipPath id="clip-path">
      <rect id="Rectangle_396" data-name="Rectangle 396" width="57.243" height="43.983" fill="none"/>
    </clipPath>
  </defs>
  <g id="Group_731" data-name="Group 731" clip-path="url(#clip-path)">
    <path id="Path_788" data-name="Path 788" d="M49.339,6.949,16.333,27.144c.781,2.415,1.548,4.79,2.316,7.165.033.1.071.2.1.3a1.368,1.368,0,1,1-2.593.811c-.787-2.394-1.57-4.789-2.326-7.192a1.4,1.4,0,0,0-.866-.966c-3.475-1.489-6.935-3.01-10.4-4.519-3.046-1.327-3.473-4.679-.766-6.6a10.345,10.345,0,0,1,3.063-1.413Q30.082,7.378,55.321.095a1.419,1.419,0,0,1,1.567.333A1.411,1.411,0,0,1,57.1,2.014q-5.808,15.45-11.6,30.9c-.222.589-.484,1.163-.725,1.745-1.174,2.842-3.147,3.91-6.133,3.18a25.887,25.887,0,0,1-3.361-1.237q-1.872-.747-3.716-1.563a.675.675,0,0,0-.83.143q-4.69,4.031-9.4,8.039c-.144.123-.284.25-.432.368a1.377,1.377,0,0,1-1.687.178,1.329,1.329,0,0,1-.564-1.6c.313-1.221.659-2.433.984-3.65.77-2.881,1.521-5.766,2.321-8.638a2.056,2.056,0,0,1,.687-.94q13.091-10.7,26.2-21.382c.195-.159.385-.323.576-.485l-.075-.128m2.226,2.044-.074-.1L25.913,29.76c4.164,1.74,8.224,3.453,12.3,5.121a7.852,7.852,0,0,0,2.015.438,1.454,1.454,0,0,0,1.618-.935c.412-.942.88-1.862,1.244-2.822,1.655-4.355,3.283-8.721,4.919-13.083q1.779-4.743,3.553-9.486M46.2,5.687l-.039-.094c-.234.063-.47.123-.7.19Q26.1,11.384,6.74,17a19.162,19.162,0,0,0-3.1,1.2c-.395.194-.9.778-.847,1.108.059.389.606.823,1.041,1.018,3.391,1.518,6.81,2.974,10.209,4.477a1.027,1.027,0,0,0,1.088-.087Q28.594,16.452,42.07,8.22,44.135,6.955,46.2,5.687M22.389,38.745,28.3,33.691l-4.09-1.7c-.6,2.231-1.185,4.4-1.821,6.753" fill="#fff"/>
  </g>
</svg>
