<?xml version="1.0" encoding="UTF-8"?>
<svg xmlns="http://www.w3.org/2000/svg" width="23.168" height="22.773" viewBox="0 0 23.168 22.773">
  <g id="Group_987" data-name="Group 987" transform="translate(-122 -571.465)">
    <path id="Path_759" data-name="Path 759" d="M6.852,5H23.316a3.227,3.227,0,0,1,3.352,3.077V22.619A3.227,3.227,0,0,1,23.316,25.7H6.852A3.227,3.227,0,0,1,3.5,22.619V8.077A3.227,3.227,0,0,1,6.852,5ZM23.316,23.7a1.24,1.24,0,0,0,1.352-1.077V8.077A1.24,1.24,0,0,0,23.316,7H6.852A1.24,1.24,0,0,0,5.5,8.077V22.619A1.24,1.24,0,0,0,6.852,23.7Z" transform="translate(118.5 568.542)"></path>
    <path id="Path_760" data-name="Path 760" d="M24,8.155a1,1,0,0,1-1-1V3a1,1,0,1,1,2,0V7.155A1,1,0,0,1,24,8.155Z" transform="translate(114.288 569.465)"></path>
    <path id="Path_761" data-name="Path 761" d="M12,8.155a1,1,0,0,1-1-1V3a1,1,0,1,1,2,0V7.155A1,1,0,0,1,12,8.155Z" transform="translate(116.88 569.465)"></path>
    <path id="Path_762" data-name="Path 762" d="M25.668,16H4.5a1,1,0,0,1,0-2H25.668a1,1,0,0,1,0,2Z" transform="translate(118.5 565.774)"></path>
  </g>
</svg>
