<svg id="Group_1326" data-name="Group 1326" xmlns="http://www.w3.org/2000/svg" xmlns:xlink="http://www.w3.org/1999/xlink" width="481.333" height="460.799" viewBox="0 0 481.333 460.799">
  <defs>
    <clipPath id="clip-path">
      <rect id="Rectangle_1832" data-name="Rectangle 1832" width="481.333" height="460.799" fill="none"/>
    </clipPath>
    <clipPath id="clip-path-3">
      <rect id="Rectangle_1829" data-name="Rectangle 1829" width="160.416" height="159.499" transform="translate(160.467 161.384)" fill="none"/>
    </clipPath>
  </defs>
  <g id="Group_1325" data-name="Group 1325" clip-path="url(#clip-path)">
    <g id="Group_1324" data-name="Group 1324">
      <g id="Group_1323" data-name="Group 1323" clip-path="url(#clip-path)">
        <path id="Path_1986" data-name="Path 1986" d="M240.666,439.331a160.449,160.449,0,1,1,0-277.947,160.354,160.354,0,0,0-80.2,137.386c-.008.526-.025,1.053-.025,1.588a160.382,160.382,0,0,0,80.225,138.973" fill="#656b6b"/>
        <path id="Path_1987" data-name="Path 1987" d="M402.22,160.441c0,.536-.008,1.063-.017,1.589a160.361,160.361,0,0,1-81.32,138.021,160.466,160.466,0,0,0-239.546-139.3v-.306a160.442,160.442,0,0,1,320.883,0" fill="#d4d6d6"/>
        <path id="Path_1988" data-name="Path 1988" d="M481.333,300.358a160.446,160.446,0,1,1-320.891,0c0-.535.016-1.061.025-1.588A160.426,160.426,0,0,0,402.2,162.03a160.355,160.355,0,0,1,79.129,138.328" fill="#dda000"/>
        <g id="Group_1319" data-name="Group 1319" style="mix-blend-mode: multiply;isolation: isolate">
          <g id="Group_1318" data-name="Group 1318">
            <g id="Group_1317" data-name="Group 1317" clip-path="url(#clip-path-3)">
              <path id="Path_1989" data-name="Path 1989" d="M320.883,300.052a160.582,160.582,0,0,1-160.416-1.282,160.351,160.351,0,0,1,80.2-137.386,160.376,160.376,0,0,1,80.217,138.668" fill="#ffde00"/>
            </g>
          </g>
        </g>
        <g id="Group_1322" data-name="Group 1322" style="mix-blend-mode: multiply;isolation: isolate">
          <g id="Group_1321" data-name="Group 1321">
            <g id="Group_1320" data-name="Group 1320" clip-path="url(#clip-path-3)">
              <path id="Path_1990" data-name="Path 1990" d="M320.883,300.052a160.582,160.582,0,0,1-160.416-1.282,160.351,160.351,0,0,1,80.2-137.386,160.376,160.376,0,0,1,80.217,138.668" fill="#a8d156"/>
            </g>
          </g>
        </g>
        <path id="Path_1991" data-name="Path 1991" d="M320.883,300.052a160.582,160.582,0,0,1-160.416-1.282,160.351,160.351,0,0,1,80.2-137.386,160.376,160.376,0,0,1,80.217,138.668" fill="#3e4443"/>
        <path id="Path_1992" data-name="Path 1992" d="M290.685,100.682c-.4-1.334-.8-2.668-1.213-4.016a.776.776,0,0,1,.257-.921,16.069,16.069,0,0,0,1.777-1.852,3.313,3.313,0,0,0-1.62-5.145,3.523,3.523,0,0,0-2.657.2c-.411-.9-.364-.948.383-1.7l.4-.4a14.963,14.963,0,0,0,1.135-1.2,3.286,3.286,0,0,0-.389-4.585,3.327,3.327,0,0,0-4.016-.338c0-.005-.386-1.284-.386-1.284-.644-2.145-1.289-4.292-1.9-6.412a.717.717,0,0,1,.186-.568c.379-.4.774-.78,1.169-1.163.371-.359.741-.719,1.1-1.09,3.443-3.582,6.384-6.928,7.509-11.657l0-1.491a4.1,4.1,0,0,0-3.682-3.561q-.3-.024-.593-.024a7.523,7.523,0,0,0-2.1.3,17.389,17.389,0,0,0-6.511,3.7c-1.657,1.411-3.246,2.947-4.782,4.433L273.525,63.1a.8.8,0,0,1-.627.3.815.815,0,0,1-.3-.059c-1.444-.46-2.9-.887-4.355-1.315L266.8,61.6l-1.7-.511a3.346,3.346,0,0,0-5.314-4.033c-.292.283-.578.572-.865.861l-.362.365c-.462.462-.633.622-.837.622a2.487,2.487,0,0,1-.829-.294c.005-.016.011-.03.016-.043a3.355,3.355,0,0,0-5.43-3.832c-.519.495-.984.944-1.431,1.444a.665.665,0,0,1-.53.266.708.708,0,0,1-.284-.063c-1.228-.378-2.459-.742-3.691-1.107-1.681-.5-3.362-1-5.011-1.517a1.918,1.918,0,0,0-.8-.173,1.947,1.947,0,0,0-1.556.777c-.341.4-.728.772-1.1,1.134-.192.185-.384.371-.573.561-.547.547-.767.947-.737,1.335s.308.747.929,1.2q8.23,6.016,16.447,12.037l8.03,5.874s-.226.283-.3.368q-7.083,8.188-14.157,16.42a.468.468,0,0,1-.395.215.537.537,0,0,1-.267-.079c-1.241-.488-2.485-.966-3.73-1.444-.95-.365-1.9-.73-2.826-1.09a1.413,1.413,0,0,0-1.7.284c-.456.464-.917.923-1.378,1.382s-.934.932-1.374,1.383a1.286,1.286,0,0,0-.261.26,1.238,1.238,0,0,0,.239,1.723q7.437,7.454,14.868,14.865a1.213,1.213,0,0,0,.3.3,1.256,1.256,0,0,0,1.731-.283c.328-.323.651-.65.974-.977.535-.542,1.068-1.082,1.612-1.591a1.59,1.59,0,0,0,.432-1.952c-.456-1.15-.9-2.305-1.343-3.459-.392-1.019-.782-2.038-1.2-3.08a.438.438,0,0,1,.162-.6q8.252-7.107,16.5-14.227c.086-.077.182-.147.283-.221l.431.592c.279.383,17.512,23.918,17.512,23.918.44.6.819.87,1.231.87a1.838,1.838,0,0,0,1.223-.69c.19-.189.375-.381.562-.574.391-.407.8-.826,1.216-1.188a1.857,1.857,0,0,0,.593-2.227c-.492-1.572-.963-3.15-1.433-4.727m-2.548-9.4a1,1,0,0,1,1.079-.2.89.89,0,0,1,.216.126.881.881,0,0,1,.14,1.237,9.361,9.361,0,0,1-.808.881c-.069.069-.139.139-.2.206-.11-.371-.508-1.687-.508-1.687-.094-.278-.124-.4.082-.558m-2.073-8.473a.826.826,0,0,1,.51-.174.877.877,0,0,1,.639.289.758.758,0,0,1,.172,1.035c-.393.485-.809.957-1.241,1.409-.034-.118-.068-.232-.1-.344a12.88,12.88,0,0,0-.413-1.273c-.183-.44-.018-.644.432-.942M260.706,59.493c.313-.3.589-.565.9-.843a.8.8,0,0,1,.993-.2,1.393,1.393,0,0,1,.576.737,2.536,2.536,0,0,1-.642,1.116.56.56,0,0,1-.135-.017c-.561-.159-1.119-.327-1.769-.523l-.152-.046Zm-8.161-2.418a10.071,10.071,0,0,1,.909-.832.86.86,0,0,1,1.207.211.93.93,0,0,1,.187.694.921.921,0,0,1-.341.61.492.492,0,0,1-.262.074.5.5,0,0,1-.117-.014c-.477-.122-.948-.266-1.483-.43l-.318-.1c.075-.073.148-.146.218-.216m-13.742.074a1.879,1.879,0,0,1,1.6-.891,1.934,1.934,0,0,1,.851.2c7.612,2.327,15.37,4.636,22.873,6.869l6.93,2.064.167.057-8.456,9.237Zm-1.28,37.7.17-.17c.4-.4.83-.825,1.262-1.233a.276.276,0,0,1,.174-.062l.026,0c1.612.606,3.219,1.222,4.881,1.859l.766.293-3,3.6Zm14.883,11.584a.518.518,0,0,1-.168.676c-.35.331-.676.69-.983,1.028l-.2.221-4.31-4.317,3.566-2.973c.1.226.186.427.264.633l.6,1.559c.4,1.052.8,2.105,1.236,3.173m.746-10.954q-2.652,2.253-5.319,4.483l-2.628,2.208-.262.211-1.492-1.449,1.153-1.385c1-1.2,1.992-2.395,3-3.582,7.841-9.263,16.225-19.081,24.954-28.341a68.668,68.668,0,0,1,8.35-8.141,49.7,49.7,0,0,1,4.863-3.048,5.341,5.341,0,0,1,1.711-.528,3.274,3.274,0,0,1,.6-.057,1.934,1.934,0,0,1,1.557.657,2.143,2.143,0,0,1,.307,1.834,12.394,12.394,0,0,1-1.183,3.091,30.556,30.556,0,0,1-5.77,7.291c-9.914,9.716-20.6,18.9-29.838,26.756m36.479,10.607a10.847,10.847,0,0,1-.9,1.007l-.533-.725c-3.363-4.6-16.255-22.223-16.826-23l-.2-.279,9.231-8.453c.031.088.06.168.085.25l4.009,13.45q2.568,8.569,5.115,17.161a.908.908,0,0,1,.022.588" fill="#3e4443"/>
        <path id="Path_1993" data-name="Path 1993" d="M346.949,130.215h-4.271l-2.691-39.082a1.394,1.394,0,0,0-1.393-1.3h-8.355a1.393,1.393,0,0,0-1.392,1.3l-2.692,39.082h-2.877v-8.354a1.392,1.392,0,0,0-2.263-1.087L309.354,130.1v-8.242a1.392,1.392,0,0,0-2.263-1.087L295.43,130.1v-8.242a1.392,1.392,0,0,0-2.263-1.087L281.506,130.1v-8.242a1.393,1.393,0,0,0-2.11-1.193l-13.925,8.354a1.391,1.391,0,0,0-.675,1.193v33.419a1.393,1.393,0,0,0,1.393,1.392h80.76a1.392,1.392,0,0,0,1.392-1.392V131.608a1.393,1.393,0,0,0-1.392-1.393M331.54,92.62h5.754l2.593,37.595H328.946Zm-11.048,69.621h-8.354V145.532h8.354Zm2.786,0v-18.1a1.393,1.393,0,0,0-1.393-1.392H310.746a1.393,1.393,0,0,0-1.393,1.392v18.1H267.581V131l11.139-6.684V133a1.392,1.392,0,0,0,2.263,1.088l11.661-9.329V133a1.392,1.392,0,0,0,2.263,1.088l11.662-9.329V133a1.391,1.391,0,0,0,2.262,1.087l11.661-9.329v6.849A1.393,1.393,0,0,0,321.885,133h23.671v29.24Z" fill="#3e4443"/>
        <path id="Path_1994" data-name="Path 1994" d="M312.128,84.266a5.164,5.164,0,0,1,1.354,1.047,4.873,4.873,0,0,0,3.111,1.738,5.08,5.08,0,0,0,3.281-1.811,6.578,6.578,0,0,1,1.176-.974c.286.013,1.037.715,1.441,1.093a4.665,4.665,0,0,0,3.014,1.692,5.445,5.445,0,0,0,3.5-1.919c.341-.32.857-.806.958-.866.747,0,.918.248,1.378.911a3.524,3.524,0,0,0,3.078,1.874,1.393,1.393,0,0,0,0-2.785c-.279,0-.333-.019-.786-.673a4.114,4.114,0,0,0-3.67-2.112A4.47,4.47,0,0,0,327.1,83.1c-.462.436-1.237,1.164-1.531,1.171a5.657,5.657,0,0,1-1.173-.945,5.17,5.17,0,0,0-3.342-1.847A4.831,4.831,0,0,0,317.97,83.2a5.786,5.786,0,0,1-1.338,1.064,5.425,5.425,0,0,1-1.253-.989,5.049,5.049,0,0,0-3.242-1.8,1.393,1.393,0,1,0-.009,2.785" fill="#3e4443"/>
        <path id="Path_1995" data-name="Path 1995" d="M280.113,145.532h-5.571a1.392,1.392,0,0,0-1.392,1.392v8.354a1.392,1.392,0,0,0,1.392,1.393h5.571a1.393,1.393,0,0,0,1.392-1.393v-8.354a1.392,1.392,0,0,0-1.392-1.392m-1.393,8.354h-2.785v-5.569h2.785Z" fill="#3e4443"/>
        <path id="Path_1996" data-name="Path 1996" d="M291.252,145.532h-5.57a1.392,1.392,0,0,0-1.392,1.392v8.354a1.392,1.392,0,0,0,1.392,1.393h5.57a1.393,1.393,0,0,0,1.392-1.393v-8.354a1.392,1.392,0,0,0-1.392-1.392m-1.393,8.354h-2.785v-5.569h2.785Z" fill="#3e4443"/>
        <path id="Path_1997" data-name="Path 1997" d="M302.391,145.532h-5.57a1.392,1.392,0,0,0-1.392,1.392v8.354a1.392,1.392,0,0,0,1.392,1.393h5.57a1.392,1.392,0,0,0,1.392-1.393v-8.354a1.392,1.392,0,0,0-1.392-1.392M301,153.886h-2.785v-5.569H301Z" fill="#3e4443"/>
        <path id="Path_1998" data-name="Path 1998" d="M131.051,310.776l-8.789-2.891v-3.044a10.5,10.5,0,0,0,5.113-9.007v-6.061a10.492,10.492,0,0,0-18.859-6.336,8.934,8.934,0,0,0-5.118-4.289l-8.788-2.893v-3.043a10.5,10.5,0,0,0,5.113-9.007v-6.061a10.5,10.5,0,1,0-20.994,0V264.2a10.5,10.5,0,0,0,5.114,9.007v3.043l-8.788,2.893a8.936,8.936,0,0,0-5.119,4.289,10.492,10.492,0,0,0-18.859,6.336v6.061a10.5,10.5,0,0,0,5.114,9.008v3.043l-8.79,2.892a8.967,8.967,0,0,0-6.173,8.533v10.615a1.407,1.407,0,0,0,1.406,1.407H68.88v10.9a1.405,1.405,0,0,0,1.406,1.406h37.88a1.405,1.405,0,0,0,1.406-1.406v-10.9h26.246a1.406,1.406,0,0,0,1.406-1.406V319.31a8.968,8.968,0,0,0-6.173-8.534m-21.858-21a7.685,7.685,0,0,1,15.37,0v6.061a7.685,7.685,0,0,1-15.37,0Zm10.256,16.239V308.9a2.571,2.571,0,0,1-5.142,0v-2.891a10.488,10.488,0,0,0,5.142,0m-12.327-6.31a10.557,10.557,0,0,0,4.373,5.139v3.044l-8.789,2.892a8.952,8.952,0,0,0-5.64,5.492l-2.456-.808v-3.044a10.5,10.5,0,0,0,5.113-9.007V299.7ZM89.226,311.1a7.694,7.694,0,0,1-7.685-7.685v-6.061a7.685,7.685,0,0,1,15.37,0v6.061a7.694,7.694,0,0,1-7.685,7.685m2.571,2.493v2.89a2.571,2.571,0,1,1-5.142,0v-2.89a10.52,10.52,0,0,0,5.142,0M81.541,264.2v-6.061a7.685,7.685,0,1,1,15.37,0V264.2a7.685,7.685,0,1,1-15.37,0M91.8,274.382v2.893a2.571,2.571,0,0,1-5.142,0v-2.893a10.488,10.488,0,0,0,5.142,0M75.934,281.82h0l8.231-2.711a5.384,5.384,0,0,0,10.122,0l8.232,2.711a6.121,6.121,0,0,1,4.208,5.278,10.49,10.49,0,0,0-.346,2.675v6.061a10.548,10.548,0,0,0,.053,1.056H99.711a10.5,10.5,0,0,0-20.971,0H72.018a10.545,10.545,0,0,0,.053-1.056v-6.061a10.446,10.446,0,0,0-.347-2.675,6.126,6.126,0,0,1,4.21-5.278M71.33,299.7h7.4v3.708a10.5,10.5,0,0,0,5.114,9.007v3.044l-2.456.808a8.955,8.955,0,0,0-5.641-5.493l-8.788-2.891v-3.044A10.559,10.559,0,0,0,71.33,299.7m-17.441-3.868v-6.061a7.685,7.685,0,0,1,15.37,0v6.061a7.685,7.685,0,0,1-15.37,0m10.256,10.178v2.89a2.571,2.571,0,0,1-5.142,0v-2.89a10.52,10.52,0,0,0,5.142,0m4.735,20.873v1.634H51.995V325a1.406,1.406,0,1,0-2.812,0v3.518H44.041V319.31a6.16,6.16,0,0,1,4.239-5.862l8.233-2.709a5.384,5.384,0,0,0,10.122,0l8.232,2.708a6.155,6.155,0,0,1,3.849,3.7l-3.662,1.2a8.965,8.965,0,0,0-6.174,8.532m37.88,13.945h-5.142v-8.253a1.406,1.406,0,0,0-2.813,0v8.253H79.647v-8.253a1.406,1.406,0,1,0-2.812,0v8.253H71.692V326.885a6.158,6.158,0,0,1,4.242-5.86l8.232-2.71a5.383,5.383,0,0,0,10.121,0l8.232,2.71a6.158,6.158,0,0,1,4.241,5.86V340.83Zm27.652-12.31h-5.143V325a1.406,1.406,0,1,0-2.812,0v3.519H109.572v-1.635a8.965,8.965,0,0,0-6.174-8.532l-3.662-1.2a6.156,6.156,0,0,1,3.849-3.7l8.232-2.709a5.384,5.384,0,0,0,10.122,0l8.232,2.709a6.159,6.159,0,0,1,4.241,5.862v9.21Zm1.406,1.255Z" fill="#fff"/>
        <path id="Path_1999" data-name="Path 1999" d="M235.557,244.812l-28.343-.269-.16,16.417,28.035.268,11.87,23.9,14.57-7.342-12.1-24.364,14.7-24.746-13.976-8.438Z" fill="#fff"/>
        <path id="Path_2000" data-name="Path 2000" d="M384.75,404.448a3.7,3.7,0,0,1-3.461-2.42l-13.619-37.44-7.736,2.975-2.9,5.821h3.942a5.857,5.857,0,0,1,5.851,5.853v17.207a5.857,5.857,0,0,1-5.851,5.852H339.465a5.857,5.857,0,0,1-5.851-5.852V379.237a5.857,5.857,0,0,1,5.851-5.853h3.942l-2.908-5.821-7.733-2.972-13.61,37.416a3.71,3.71,0,0,1-3.479,2.441H311.5a3.7,3.7,0,0,1-3.515-4.836l12.464-39.758L314.6,357.6l-.275.334a3.671,3.671,0,0,1-2.829,1.34H298.6a3.7,3.7,0,0,1-3.7-3.7v-8.6a3.7,3.7,0,0,1,3.7-3.7h4.9v-5.505H287.844a1.55,1.55,0,1,1,0-3.1H303.5v-.6a1.551,1.551,0,0,1,3.1,0v.6h15.656a1.55,1.55,0,1,1,0,3.1H306.6v5.505h4.9a3.689,3.689,0,0,1,3.183,1.848l.173.3h19.807l.152-.377a16.7,16.7,0,0,1,9.19-9.187,16.593,16.593,0,0,1,21.613,9.187l.152.377h19.81l.173-.3a3.689,3.689,0,0,1,3.183-1.848h4.9v-5.505H378.181a1.55,1.55,0,0,1,0-3.1H393.84v-.6a1.549,1.549,0,0,1,3.1,0v.6H412.6a1.55,1.55,0,1,1,0,3.1H396.939v5.505h4.9a3.7,3.7,0,0,1,3.7,3.7v8.6a3.7,3.7,0,0,1-3.7,3.7H388.936a3.666,3.666,0,0,1-2.825-1.34l-.276-.334-5.848,2.248,12.473,39.785a3.677,3.677,0,0,1-.528,3.275,3.727,3.727,0,0,1-3,1.536Zm-14.178-40.974,13.774,37.872h5.408L377.1,360.969Zm-59.887,37.872H316.1l13.771-37.872-6.522-2.505Zm28.78-24.862a2.755,2.755,0,0,0-2.75,2.753v17.207a2.755,2.755,0,0,0,2.75,2.752h21.509a2.755,2.755,0,0,0,2.753-2.752V379.237a2.756,2.756,0,0,0-2.753-2.753Zm7.41-3.1h6.689l2.75-5.5H344.125ZM315.2,354.511l26.6,10.229,16.623.041,26.813-10.27v-5.988H364.653a1.559,1.559,0,0,1-1.492-1.107,13.5,13.5,0,0,0-25.886,0,1.557,1.557,0,0,1-1.486,1.109H315.2Zm73.13,1.667h14.108v-9.805H388.335Zm-90.337,0H312.1v-9.805H298Z" fill="#fff"/>
        <path id="Path_2001" data-name="Path 2001" d="M350.22,393.692a5.852,5.852,0,1,1,5.854-5.852,5.858,5.858,0,0,1-5.854,5.852m0-8.6a2.752,2.752,0,1,0,2.753,2.751,2.755,2.755,0,0,0-2.753-2.751" fill="#fff"/>
      </g>
    </g>
  </g>
</svg>
