<?xml version="1.0" encoding="UTF-8"?>
<svg xmlns="http://www.w3.org/2000/svg" xmlns:xlink="http://www.w3.org/1999/xlink" width="481.333" height="460.799" viewBox="0 0 481.333 460.799">
  <defs>
    <clipPath id="clip-path">
      <rect id="Rectangle_1836" data-name="Rectangle 1836" width="481.333" height="460.799" fill="none"></rect>
    </clipPath>
    <clipPath id="clip-path-3">
      <rect id="Rectangle_1833" data-name="Rectangle 1833" width="160.416" height="159.499" transform="translate(160.467 161.384)" fill="none"></rect>
    </clipPath>
  </defs>
  <g id="Group_1335" data-name="Group 1335" clip-path="url(#clip-path)">
    <g id="Group_1334" data-name="Group 1334">
      <g id="Group_1333" data-name="Group 1333" clip-path="url(#clip-path)">
        <path id="Path_2002" data-name="Path 2002" d="M240.666,439.331a160.449,160.449,0,1,1,0-277.947,160.354,160.354,0,0,0-80.2,137.386c-.008.526-.025,1.053-.025,1.588a160.382,160.382,0,0,0,80.225,138.973" fill="#656b6b"></path>
        <path id="Path_2003" data-name="Path 2003" d="M402.22,160.441c0,.536-.008,1.063-.017,1.589a160.361,160.361,0,0,1-81.32,138.021,160.466,160.466,0,0,0-239.546-139.3v-.306a160.442,160.442,0,0,1,320.883,0" fill="#d4d6d6"></path>
        <path id="Path_2004" data-name="Path 2004" d="M481.333,300.358a160.446,160.446,0,1,1-320.891,0c0-.535.016-1.061.025-1.588A160.426,160.426,0,0,0,402.2,162.03a160.355,160.355,0,0,1,79.129,138.328" fill="#dda000"></path>
        <g id="Group_1329" data-name="Group 1329" style="mix-blend-mode: multiply;isolation: isolate">
          <g id="Group_1328" data-name="Group 1328">
            <g id="Group_1327" data-name="Group 1327" clip-path="url(#clip-path-3)">
              <path id="Path_2005" data-name="Path 2005" d="M320.883,300.052a160.582,160.582,0,0,1-160.416-1.282,160.351,160.351,0,0,1,80.2-137.386,160.376,160.376,0,0,1,80.217,138.668" fill="#ffde00"></path>
            </g>
          </g>
        </g>
        <g id="Group_1332" data-name="Group 1332" style="mix-blend-mode: multiply;isolation: isolate">
          <g id="Group_1331" data-name="Group 1331">
            <g id="Group_1330" data-name="Group 1330" clip-path="url(#clip-path-3)">
              <path id="Path_2006" data-name="Path 2006" d="M320.883,300.052a160.582,160.582,0,0,1-160.416-1.282,160.351,160.351,0,0,1,80.2-137.386,160.376,160.376,0,0,1,80.217,138.668" fill="#a8d156"></path>
            </g>
          </g>
        </g>
        <path id="Path_2007" data-name="Path 2007" d="M320.883,300.052a160.582,160.582,0,0,1-160.416-1.282,160.351,160.351,0,0,1,80.2-137.386,160.376,160.376,0,0,1,80.217,138.668" fill="#3e4443"></path>
        <path id="Path_2008" data-name="Path 2008" d="M235.557,244.812l-28.343-.269-.16,16.417,28.035.268,11.87,23.9,14.57-7.342-12.1-24.364,14.7-24.746-13.976-8.438Z" fill="#fff"></path>
        <path id="Path_2009" data-name="Path 2009" d="M302.407,47.466c.408.125.82.235,1.22.378a6.47,6.47,0,0,1,4.265,5.874v80.476a6.412,6.412,0,0,1-5.5,6.627,8.22,8.22,0,0,1-1.366.079H247.484a6.448,6.448,0,0,1-6.86-6.008,6.572,6.572,0,0,1,0-.865V54.582a6.486,6.486,0,0,1,5.345-7.03.643.643,0,0,0,.148-.086ZM243.2,91.4v42.552a3.927,3.927,0,0,0,4.4,4.375h53.28a3.942,3.942,0,0,0,4.443-4.426V54.457a3.941,3.941,0,0,0-3.389-4.424,3.9,3.9,0,0,0-1.057,0h-53.2A3.951,3.951,0,0,0,243.19,54.5V91.4" fill="#3e4443"></path>
        <path id="Path_2010" data-name="Path 2010" d="M299.988,57.766H248.573c-1.5,0-1.868.365-1.868,1.869,0,7.77,0,55.266,0,63.9,0,1.569.352,1.923,1.908,1.923h51.331c1.5,0,1.872-.368,1.872-1.867v-64c0-1.442-.383-1.825-1.825-1.825m-.8,65.087H249.277l0-1.034c0-7.023,0-52.394,0-60.459v-.978h49.909Z" fill="#3e4443"></path>
        <path id="Path_2011" data-name="Path 2011" d="M274.352,130.611h-4.97c-.991,0-1.56.507-1.536,1.321.021.774.576,1.246,1.525,1.247q4.881.014,9.763,0c.989,0,1.56-.508,1.538-1.322-.021-.773-.578-1.24-1.527-1.246-1.6-.01-3.2,0-4.8,0" fill="#3e4443"></path>
        <path id="Path_2012" data-name="Path 2012" d="M275.527,53.88a1.267,1.267,0,1,1-1.273-1.26h.031a1.282,1.282,0,0,1,1.242,1.26" fill="#3e4443"></path>
        <path id="Path_2013" data-name="Path 2013" d="M100.824,335.858a5.567,5.567,0,0,1-5.558-5.575v-.662h-.661a5.573,5.573,0,0,1-5.558-5.559v-4.807h-5.47v4.808a5.574,5.574,0,0,1-5.558,5.558h-.662v.662a5.552,5.552,0,1,1-1.419-3.7l.118.131.22.076,1.743.013a2.742,2.742,0,0,0,2.735-2.734v-4.809H71.8a5.574,5.574,0,0,1-5.558-5.558v-4.808H57.287a2.742,2.742,0,0,0-2.735,2.734V316.6l.442.156a5.556,5.556,0,1,1-3.707,0l.442-.155v-4.972a5.575,5.575,0,0,1,5.558-5.558h8.954V300.6H50.712a2.705,2.705,0,0,0-1.935.8l-5.336,5.335.2.421a5.528,5.528,0,0,1,0,4.794,5.591,5.591,0,0,1-5.022,3.165,5.565,5.565,0,0,1-5.012-7.959,5.6,5.6,0,0,1,5.022-3.165,5.512,5.512,0,0,1,2.393.546l.422.2,5.336-5.336a5.486,5.486,0,0,1,3.915-1.628H66.241V292.3H54.858a5.576,5.576,0,0,1-3.928-1.626l-6.239-6.239-.464.38a5.577,5.577,0,0,1-3.534,1.266,5.65,5.65,0,0,1-1-.091,5.565,5.565,0,0,1,.994-11.04,5.658,5.658,0,0,1,1.008.092,5.573,5.573,0,0,1,4.474,6.475l-.065.34,6.82,6.819a2.733,2.733,0,0,0,1.927.8H66.241v-4.808a5.77,5.77,0,0,1,.09-.995l.065-.339-8.365-8.365-.421.2a5.561,5.561,0,1,1-2.4-10.578,5.565,5.565,0,0,1,5.014,7.96l-.2.421,7.784,7.784.464-.382a5.542,5.542,0,0,1,3.517-1.264h8.962v-4.808a2.741,2.741,0,0,0-2.735-2.734H76.137l-.147.161a5.563,5.563,0,0,1-8.139.273,5.565,5.565,0,1,1,9.506-3.921v.663h.662a5.574,5.574,0,0,1,5.558,5.559v4.807h5.47v-4.808a5.573,5.573,0,0,1,5.558-5.558h.661v-.662a5.552,5.552,0,1,1,1.419,3.7l-.118-.13-.22-.076-1.742-.013a2.739,2.739,0,0,0-2.735,2.733v4.809h8.954a5.556,5.556,0,0,1,3.525,1.264l.463.382,7.784-7.784-.2-.421a5.561,5.561,0,1,1,10.035,0,5.593,5.593,0,0,1-5.021,3.164,5.512,5.512,0,0,1-2.394-.545l-.422-.2-8.365,8.365.065.343a5.684,5.684,0,0,1,.09.992v4.807h11.383a2.744,2.744,0,0,0,1.935-.8l6.818-6.817-.064-.344a5.569,5.569,0,1,1,1.942,3.3l-.463-.381-6.238,6.238a5.553,5.553,0,0,1-3.912,1.628h-11.4v5.469h15.529a5.577,5.577,0,0,1,3.929,1.627l5.337,5.337.422-.2a5.556,5.556,0,1,1-2.619,2.619l.2-.421-5.337-5.337a2.7,2.7,0,0,0-1.929-.8H106.382v5.469h8.954a5.576,5.576,0,0,1,5.558,5.559V316.6l.442.156a5.556,5.556,0,1,1-3.707,0l.442-.155v-4.972a2.743,2.743,0,0,0-2.735-2.735h-8.954V313.7a5.574,5.574,0,0,1-5.558,5.558H91.87v4.808a2.741,2.741,0,0,0,2.735,2.735h1.883l.148-.164a5.561,5.561,0,0,1,8.135-.271,5.562,5.562,0,0,1-3.938,9.495Zm0-8.31a2.735,2.735,0,1,0,2.734,2.735,2.742,2.742,0,0,0-2.734-2.735m-29.025,0a2.735,2.735,0,1,0,2.735,2.735,2.737,2.737,0,0,0-2.735-2.735m47.683-8.293a2.735,2.735,0,1,0,2.735,2.735,2.74,2.74,0,0,0-2.735-2.735m-66.341,0a2.735,2.735,0,1,0,2.734,2.735,2.738,2.738,0,0,0-2.734-2.735M71.8,281.938a2.74,2.74,0,0,0-2.734,2.735V313.7a2.74,2.74,0,0,0,2.734,2.735h29.025a2.74,2.74,0,0,0,2.734-2.735V284.673a2.74,2.74,0,0,0-2.734-2.735Zm62.2,24.878a2.735,2.735,0,1,0,2.734,2.735,2.738,2.738,0,0,0-2.734-2.735m-95.366,0a2.735,2.735,0,1,0,2.735,2.735,2.738,2.738,0,0,0-2.735-2.735m93.292-29.024a2.734,2.734,0,1,0,2.735,2.734,2.739,2.739,0,0,0-2.735-2.734m-91.219,0a2.734,2.734,0,1,0,2.734,2.734,2.738,2.738,0,0,0-2.734-2.734m76.707-10.366a2.735,2.735,0,1,0,2.734,2.735,2.742,2.742,0,0,0-2.734-2.735m-62.195,0a2.735,2.735,0,1,0,2.735,2.735,2.737,2.737,0,0,0-2.735-2.735m45.61-2.073a2.734,2.734,0,1,0,2.734,2.734,2.741,2.741,0,0,0-2.734-2.734m-29.025,0a2.734,2.734,0,1,0,2.735,2.735,2.737,2.737,0,0,0-2.735-2.735" fill="#fff"></path>
        <path id="Path_2014" data-name="Path 2014" d="M405.69,359.909a18.224,18.224,0,0,0-8.034-5.674,27.217,27.217,0,0,0-53.168-11.625,14.444,14.444,0,0,0-21.124,11.142,18.11,18.11,0,1,0-4.455,35.663H391.62a18.107,18.107,0,0,0,14.07-29.506M391.62,385.16H318.909a13.853,13.853,0,1,1,0-27.706,13.728,13.728,0,0,1,5.7,1.227,2.127,2.127,0,0,0,2.99-2.178,10.182,10.182,0,0,1,16.986-8.657,2.128,2.128,0,0,0,3.551-1.35,22.959,22.959,0,1,1,44.934,8.643,2.126,2.126,0,0,0,1.584,2.651,13.853,13.853,0,0,1-3.032,27.37" fill="#fff"></path>
        <path id="Path_2015" data-name="Path 2015" d="M371.043,330.211h-.079a2.128,2.128,0,1,0,0,4.255h.07a2.128,2.128,0,0,0,.009-4.255" fill="#fff"></path>
        <path id="Path_2016" data-name="Path 2016" d="M380.327,332.72a2.128,2.128,0,1,0-2.133,3.682,14.506,14.506,0,0,1,7.218,12.512,2.128,2.128,0,0,0,4.255,0,18.772,18.772,0,0,0-9.34-16.193" fill="#fff"></path>
      </g>
    </g>
  </g>
</svg>
