<?xml version="1.0" encoding="UTF-8"?>
<svg xmlns="http://www.w3.org/2000/svg" xmlns:xlink="http://www.w3.org/1999/xlink" id="Component_127_8" data-name="Component 127 – 8" width="34" height="34" viewBox="0 0 34 34">
  <defs>
    <clipPath id="clip-path">
      <rect id="Rectangle_1863" data-name="Rectangle 1863" width="14.602" height="11.09" fill="#111"></rect>
    </clipPath>
  </defs>
  <g id="Ellipse_124" data-name="Ellipse 124" fill="none" stroke="#111" stroke-width="1">
    <circle cx="17" cy="17" r="17" stroke="none"></circle>
    <circle cx="17" cy="17" r="16.5" fill="none"></circle>
  </g>
  <g id="Group_1398" data-name="Group 1398" transform="translate(10 11)">
    <g id="Group_1400" data-name="Group 1400" transform="translate(0 0)" clip-path="url(#clip-path)">
      <path id="Path_2046" data-name="Path 2046" d="M12.869,0H1.733A1.7,1.7,0,0,0,0,1.664V9.426A1.7,1.7,0,0,0,1.733,11.09H12.869A1.7,1.7,0,0,0,14.6,9.426V1.664A1.7,1.7,0,0,0,12.869,0m0,9.621H1.733c-.14,0-.263-.091-.263-.2V2.691L6.506,6.942a.571.571,0,0,0,.369.135h.851a.573.573,0,0,0,.37-.135l5.036-4.252V9.426c0,.1-.123.2-.263.2m-5.568-4L2.4,1.469h9.8Z" transform="translate(0 0)" fill="#111"></path>
    </g>
  </g>
</svg>
