<svg xmlns="http://www.w3.org/2000/svg" xmlns:xlink="http://www.w3.org/1999/xlink" width="88.426" height="88.426" viewBox="0 0 88.426 88.426">
  <defs>
    <clipPath id="clip-path">
      <rect id="Rectangle_1847" data-name="Rectangle 1847" width="88.426" height="88.426" transform="translate(0 0)" fill="none"/>
    </clipPath>
  </defs>
  <g id="Group_1364" data-name="Group 1364" transform="translate(0 0)">
    <g id="Group_1363" data-name="Group 1363" clip-path="url(#clip-path)">
      <path id="Path_2035" data-name="Path 2035" d="M84.489,86.285l-.052-.013c-2.5-.6-4.347-2.218-6.166-3.968-.2-.187-.38-.38-.569-.573s-.391-.405-.6-.6c-1.067.307-2.191.644-3.316.981l-.242.073a1.981,1.981,0,0,1-.381,2.079,2.03,2.03,0,0,1-1.553.72,2.055,2.055,0,0,1-1.309-.472,8.275,8.275,0,0,1-.654-.618s-.307-.307-.355-.353a2.087,2.087,0,0,1-2.013,2.618,2,2,0,0,1-1.235-.423,8.532,8.532,0,0,1-1-.954l-.13-.036q-1.024.316-2.053.619c-.82.245-1.641.49-2.456.746a1.718,1.718,0,0,1-.518.087,1.269,1.269,0,0,1-1-.5c-.181-.21-.384-.405-.586-.6-.1-.1-.209-.2-.312-.307a1.035,1.035,0,0,1,.135-1.8l12.384-9.064L69.1,72.291q-2.9-3.355-5.788-6.716c-.524.21-1.036.407-1.549.6-.593.227-1.185.455-1.776.689a1.383,1.383,0,0,1-.52.109,1.177,1.177,0,0,1-.872-.412c-.256-.276-.524-.54-.792-.805-.179-.177-.359-.354-.535-.534a1,1,0,0,1,0-1.533q3.849-3.854,7.7-7.7a1.06,1.06,0,0,1,.751-.351,1.083,1.083,0,0,1,.756.349c.249.243.493.489.738.735s.466.47.7.7a1.066,1.066,0,0,1,.234,1.243l-.576,1.494c-.243.629-.484,1.259-.731,1.886,2.191,1.887,8.356,7.207,8.356,7.207L84.24,56.9a1.222,1.222,0,0,1,.938-.625,1.345,1.345,0,0,1,.9.485l.276.284a7.673,7.673,0,0,0,.579.562,1.358,1.358,0,0,1,.424,1.579c-.274.865-.533,1.736-.79,2.606-.189.635-.376,1.269-.571,1.9.277.305.526.563.77.82a2.1,2.1,0,0,1,.27,2.712,2,2,0,0,1-1.669.871,2.262,2.262,0,0,1-.6-.082,2.131,2.131,0,0,1,.162.154s.5.5.638.639a2.088,2.088,0,0,1,.261,2.774,2,2,0,0,1-1.625.832,2.214,2.214,0,0,1-.752-.134l-.386,1.305c-.217.735-.433,1.47-.665,2.2-.016.058-.006.082.056.146l.6.626c.771.8,1.57,1.624,2.306,2.488a9.242,9.242,0,0,1,1.982,3.5,4.258,4.258,0,0,1,.153,1.522,2.426,2.426,0,0,1-2.1,2.207l-.05.012ZM63.266,62.494q1.22,1.455,2.448,2.905c4.056,4.774,8.8,10.295,13.822,15.415a15.262,15.262,0,0,0,3.683,2.919,6.122,6.122,0,0,0,1.515.576,1.2,1.2,0,0,0,.259.031.59.59,0,0,0,.463-.188.857.857,0,0,0,.118-.711,2.45,2.45,0,0,0-.232-.77l-.2-.335a20.724,20.724,0,0,0-1.36-2.149A28.124,28.124,0,0,0,80.35,76.6l-.737-.688c-4.769-4.491-9.848-8.83-14.643-12.891-.614-.519-1.23-1.032-1.849-1.547l-.469-.391-.309.318ZM67.23,84.183a.346.346,0,0,0,.076.011.094.094,0,0,0,.1-.061.112.112,0,0,0-.006-.112l-.266.08c.031.028.065.056.1.082M60.1,84.155a.656.656,0,0,0,.077-.016c2.123-.63,15.421-4.6,15.421-4.6l-3.786-4.137c-1.679,1.227-11.827,8.653-11.827,8.653.038.034.076.066.115.1m11.268-1.311c.078.069.158.135.239.2h.008a.146.146,0,0,0,.08-.052c.057-.061.063-.08.01-.16a.91.91,0,0,0-.061-.085c-.094.038-.185.069-.276.1M80.8,74.335l.988-3.316c1.158-3.888,2.313-7.776,3.5-11.656a.82.82,0,0,0,.019-.627L76.665,70.548Zm3.229-4a.893.893,0,0,0,.189.114c-.032-.013.039-.074.088-.14h0c-.012,0-.036-.043-.086-.1s-.076-.085-.117-.127c-.025.085-.048.169-.072.252m1.25-4.193a.134.134,0,0,0,.051.01c.115-.053.136-.083.139-.111a1.919,1.919,0,0,0-.117-.163c-.026.089-.05.177-.073.264m-25.99-1.62c.132.122.267.25.394.385.541-.23,1.11-.448,1.68-.665l.617-.237-.988-1.183Zm5.976-3.8.049-.127c.283-.739.558-1.458.829-2.177-.125-.131-.252-.259-.375-.383l-1.7,1.694Z"/>
      <path id="Path_2036" data-name="Path 2036" d="M44.213,86.926A42.713,42.713,0,1,1,86.926,44.213" fill="none" stroke="#000" stroke-linecap="round" stroke-linejoin="round" stroke-width="3"/>
      <path id="Path_2037" data-name="Path 2037" d="M49.688,25.124l-4.894,19.09L20.606,64.089" fill="none" stroke="#000" stroke-linecap="round" stroke-linejoin="round" stroke-width="3"/>
    </g>
  </g>
</svg>
