<svg id="_Group_" xmlns="http://www.w3.org/2000/svg" width="19" height="19" viewBox="0 0 19 19">
  <path id="Path_451" data-name="Path 451" d="M12.131,12.352l-.685-.342h0l-1.027-1.027L7,11.324H6.825l-.171-.171c-.171-.171-.171-.342,0-.342l2.4-1.2-.685-.685H7V8.757c-.171,0-.171-.171,0-.342l1.027-.342.514-1.2a.237.237,0,0,1,.342,0v.171H9.05V8.415l.685.685,1.027-2.568a.237.237,0,0,1,.342,0l.171.171q.171.171,0,.171l-.342,3.595L11.96,11.5h0l.342.685C12.3,12.352,12.3,12.352,12.131,12.352Z" transform="translate(4.302 4.595)" fill="#0f0e0e"/>
  <path id="Path_452" data-name="Path 452" d="M8.149,10.572A1.82,1.82,0,0,1,6.437,9.032H5.41L2.5,8.689l2.91-.171.685-.171h.342a2.068,2.068,0,0,1,1.2-1.2V6.806l.171-1.712L8.149,1.5,8.32,5.095l.171,1.712a.493.493,0,0,0,.171.342A1.8,1.8,0,0,1,9.689,8.86a1.689,1.689,0,0,1-1.541,1.712Z" transform="translate(1.437 1.068)" fill="#0f0e0e"/>
  <path id="Path_453" data-name="Path 453" d="M19.2,10.1H16.8a.736.736,0,0,1-.685-.685c0-.342.342-.514.685-.514H18a12.037,12.037,0,0,0-.685-2.739,12.583,12.583,0,0,0-1.712-2.568,6.938,6.938,0,0,0-2.739-1.712,8.067,8.067,0,0,0-6.5,0A7.236,7.236,0,0,0,3.795,3.595,7.236,7.236,0,0,0,2.083,6.162a8.067,8.067,0,0,0,0,6.5,6.938,6.938,0,0,0,1.712,2.739,12.583,12.583,0,0,0,2.568,1.712A12.037,12.037,0,0,0,9.1,17.8V16.6a.454.454,0,0,1,.514-.514c.342,0,.685.171.685.514V19H9.615a9.589,9.589,0,0,1-3.595-.685,14.5,14.5,0,0,1-3.081-2.054A9.12,9.12,0,0,1,.885,13.18,10.052,10.052,0,0,1,.2,9.415,9.589,9.589,0,0,1,.885,5.82,9.441,9.441,0,0,1,6.02.685,9.589,9.589,0,0,1,9.615,0,10.052,10.052,0,0,1,13.38.685a9.12,9.12,0,0,1,3.081,2.054A14.5,14.5,0,0,1,18.516,5.82,9.589,9.589,0,0,1,19.2,9.415Z" transform="translate(-0.2 0)" fill="#0f0e0e"/>
</svg>
