<?xml version="1.0" encoding="utf-8"?>
<!-- Generator: Adobe Illustrator 27.3.1, SVG Export Plug-In . SVG Version: 6.00 Build 0)  -->
<svg version="1.1" id="Layer_1" xmlns="http://www.w3.org/2000/svg" xmlns:xlink="http://www.w3.org/1999/xlink" x="0px" y="0px"
	 viewBox="0 0 19.1 17.2" style="enable-background:new 0 0 19.1 17.2;" xml:space="preserve">
<g>
	<path id="Path_2247" d="M8.6,17.2C3.8,17.2,0,13.3,0,8.6c0-2.3,0.9-4.5,2.5-6.1c3.4-3.3,8.8-3.3,12.1,0c1.2,1.2,2,2.7,2.4,4.4
		l1-1.2c0.1-0.2,0.3-0.2,0.5-0.2c0.2,0,0.3,0.1,0.4,0.2c0.3,0.2,0.3,0.6,0.1,0.9l-2,2.4c-0.1,0.1-0.3,0.2-0.5,0.2l0,0
		c-0.2,0-0.3-0.1-0.5-0.2l-2.3-1.9c-0.1-0.1-0.2-0.3-0.2-0.5c0-0.2,0-0.3,0.2-0.5c0.1-0.2,0.3-0.2,0.5-0.2c0.2,0,0.3,0.1,0.4,0.1
		L15.7,7C14.8,3.1,10.9,0.6,7,1.5c-1.4,0.3-2.6,1-3.6,2c-2.8,2.8-2.8,7.4,0,10.3c1.4,1.4,3.2,2.1,5.1,2.1c0.4,0,0.7,0.3,0.7,0.7
		C9.2,16.9,8.9,17.2,8.6,17.2"/>
	<path id="Path_2248" d="M5.8,10.1c-0.4,0-0.7-0.3-0.7-0.7s0.3-0.7,0.7-0.7l0,0l2.2,0l0-4.1C8,4.3,8.3,4,8.7,4C9,4,9.3,4.3,9.3,4.7
		l0,0l0,4.8c0,0.4-0.3,0.7-0.7,0.7H5.8z"/>
</g>
</svg>
