<?xml version="1.0" encoding="UTF-8"?>
<svg xmlns="http://www.w3.org/2000/svg" id="Component_24_3" data-name="Component 24 – 3" width="33" height="34" viewBox="0 0 33 34">
  <path id="Icon_awesome-instagram" data-name="Icon awesome-instagram" d="M5.967,5.146A3.061,3.061,0,1,0,9.028,8.207,3.056,3.056,0,0,0,5.967,5.146Zm0,5.051a1.99,1.99,0,1,1,1.99-1.99,1.994,1.994,0,0,1-1.99,1.99Zm3.9-5.176a.714.714,0,1,1-.714-.714A.712.712,0,0,1,9.867,5.021Zm2.027.725a3.533,3.533,0,0,0-.964-2.5,3.556,3.556,0,0,0-2.5-.964c-.986-.056-3.94-.056-4.926,0A3.551,3.551,0,0,0,1,3.241a3.545,3.545,0,0,0-.964,2.5c-.056.986-.056,3.94,0,4.926A3.533,3.533,0,0,0,1,13.17a3.561,3.561,0,0,0,2.5.964c.986.056,3.94.056,4.926,0a3.533,3.533,0,0,0,2.5-.964,3.556,3.556,0,0,0,.964-2.5c.056-.986.056-3.937,0-4.923Zm-1.273,5.981a2.015,2.015,0,0,1-1.135,1.135,13.158,13.158,0,0,1-3.519.24,13.26,13.26,0,0,1-3.519-.24,2.015,2.015,0,0,1-1.135-1.135,13.157,13.157,0,0,1-.24-3.519,13.26,13.26,0,0,1,.24-3.519A2.015,2.015,0,0,1,2.448,3.553a13.158,13.158,0,0,1,3.519-.24,13.26,13.26,0,0,1,3.519.24,2.015,2.015,0,0,1,1.135,1.135,13.157,13.157,0,0,1,.24,3.519A13.15,13.15,0,0,1,10.621,11.726Z" transform="translate(10.678 9.045)" fill="#111" stroke="rgba(0,0,0,0)" stroke-width="1"></path>
  <g id="Ellipse_126" data-name="Ellipse 126" fill="none" stroke="#111" stroke-width="1">
    <ellipse cx="16.5" cy="17" rx="16.5" ry="17" stroke="none"></ellipse>
    <ellipse cx="16.5" cy="17" rx="16" ry="16.5" fill="none"></ellipse>
  </g>
</svg>
