<svg id="Component_137_13" data-name="Component 137 – 13" xmlns="http://www.w3.org/2000/svg" xmlns:xlink="http://www.w3.org/1999/xlink" width="19.037" height="16.524" viewBox="0 0 19.037 16.524">
  <defs>
    <clipPath id="clip-path">
      <rect id="Rectangle_2113" data-name="Rectangle 2113" width="19.037" height="16.524" fill="none"/>
    </clipPath>
  </defs>
  <g id="Group_2539" data-name="Group 2539" clip-path="url(#clip-path)">
    <path id="Path_2724" data-name="Path 2724" d="M19.254,6.154,16.96,9.973A6.35,6.35,0,0,1,19,14.156a7.535,7.535,0,0,0,1.2-4.086V6.154Z" transform="translate(-3.104 -1.126)" fill="#fff"/>
    <path id="Path_2725" data-name="Path 2725" d="M3.321,6.154H2.374v3.917a7.535,7.535,0,0,0,1.2,4.086A6.35,6.35,0,0,1,5.615,9.973Z" transform="translate(-0.434 -1.126)" fill="#fff"/>
    <path id="Path_2726" data-name="Path 2726" d="M11.309,14.07a1.525,1.525,0,1,0,1.525,1.525,1.526,1.526,0,0,0-1.525-1.525" transform="translate(-1.791 -2.575)" fill="#fff"/>
    <path id="Path_2727" data-name="Path 2727" d="M13.89,11.467H6.98a5.329,5.329,0,0,0-1.914,4.924,7.575,7.575,0,0,0,10.738,0,5.329,5.329,0,0,0-1.914-4.924m-3.455,6.156a2.505,2.505,0,1,1,2.5-2.5,2.507,2.507,0,0,1-2.5,2.5" transform="translate(-0.917 -2.098)" fill="#fff"/>
    <path id="Path_2728" data-name="Path 2728" d="M17.623,0H1.413A1.426,1.426,0,0,0,0,1.441V2.674A1.426,1.426,0,0,0,1.023,4.048H5.036v.98h-1L6.05,8.389h6.937l2.02-3.361H13.76v-.98h4.255a1.426,1.426,0,0,0,1.023-1.373V1.441A1.427,1.427,0,0,0,17.623,0M7.445,6.782H6.365V1.35h1.08Zm4.095,0-.9-1.513H9.648V6.782H8.567V1.35h2.02a2.278,2.278,0,0,1,1.076.24,1.693,1.693,0,0,1,.7.683,2.121,2.121,0,0,1,.247,1.047,2.083,2.083,0,0,1-.25,1.044,1.657,1.657,0,0,1-.709.672L12.7,6.782Z" transform="translate(0 0)" fill="#fff"/>
    <path id="Path_2729" data-name="Path 2729" d="M12.688,2.9h-.88V4.8h.88a1.017,1.017,0,0,0,.739-.248.934.934,0,0,0,.253-.7.931.931,0,0,0-.253-.7,1.027,1.027,0,0,0-.739-.244" transform="translate(-2.161 -0.531)" fill="#fff"/>
  </g>
</svg>
