<svg xmlns="http://www.w3.org/2000/svg" xmlns:xlink="http://www.w3.org/1999/xlink" width="231.097" height="36.972" viewBox="0 0 231.097 36.972">
  <defs>
    <clipPath id="clip-path">
      <rect id="Rectangle_1865" data-name="Rectangle 1865" width="231.097" height="36.972" fill="#dda025"/>
    </clipPath>
  </defs>
  <g id="Group_1417" data-name="Group 1417" clip-path="url(#clip-path)">
    <path id="Path_2047" data-name="Path 2047" d="M398.762,15.616a7.8,7.8,0,0,1,0-15.609h20.885V3.413H398.762a4.4,4.4,0,0,0,0,8.8h20.885v3.406Z" transform="translate(-353.218 -0.006)" fill="#f1f1f1"/>
    <path id="Path_2048" data-name="Path 2048" d="M735.758,15.609A6.261,6.261,0,0,1,729.5,9.354V6.28A6.281,6.281,0,0,1,735.758,0H751.9a6.282,6.282,0,0,1,6.257,6.28V9.354a6.261,6.261,0,0,1-6.257,6.255Zm0-12.18a2.856,2.856,0,0,0-2.85,2.851V9.354a2.855,2.855,0,0,0,2.85,2.848H751.9a2.843,2.843,0,0,0,2.852-2.848V6.28A2.844,2.844,0,0,0,751.9,3.43Z" transform="translate(-659.064)" fill="#f1f1f1"/>
    <path id="Path_2049" data-name="Path 2049" d="M1072.386,15.616V8.422h23.135a2.493,2.493,0,1,0,0-4.986h-23.135V.007h23.135a5.923,5.923,0,0,1,0,11.847h-19.73v3.762Z" transform="translate(-968.841 -0.006)" fill="#f1f1f1"/>
    <path id="Path_2050" data-name="Path 2050" d="M1400.751,0v3.43h12.625V15.615h3.407V3.434h12.628V0Z" transform="translate(-1265.501 -0.004)" fill="#f1f1f1"/>
    <path id="Path_2051" data-name="Path 2051" d="M1739.037,3.436H1767.7V.009h-28.659Zm0,6.079H1767.7V6.109h-28.659Zm0,6.1H1767.7V12.209h-28.659Z" transform="translate(-1571.123 -0.008)" fill="#f1f1f1"/>
    <path id="Path_2052" data-name="Path 2052" d="M2113.673,15.616l-3.917-3.762h-15.186v3.762h-3.408V8.422H2114.3a2.493,2.493,0,0,0,0-4.986h-23.135V.007H2114.3a5.918,5.918,0,0,1,.356,11.824l3.942,3.785Z" transform="translate(-1889.248 -0.006)" fill="#f1f1f1"/>
    <path id="Path_2053" data-name="Path 2053" d="M406.686,217.144v-8.161h26.26a2.831,2.831,0,0,0,0-5.663h-26.26v-3.892h26.26a6.723,6.723,0,0,1,0,13.447h-22.4v4.269Z" transform="translate(-367.418 -180.172)" fill="#f1f1f1"/>
    <rect id="Rectangle_1864" data-name="Rectangle 1864" width="3.867" height="17.69" transform="translate(77.786 19.281)" fill="#f1f1f1"/>
    <path id="Path_2054" data-name="Path 2054" d="M924.38,199.426,909.722,208.3l14.659,8.844h-7.506l-10.918-6.6-10.92,6.6h-7.506l14.685-8.844-14.685-8.872h7.506l10.92,6.6,10.918-6.6Z" transform="translate(-801.835 -180.17)" fill="#f1f1f1"/>
    <path id="Path_2055" data-name="Path 2055" d="M1295.348,217.144v-8.161h26.26a2.831,2.831,0,0,0,0-5.663h-26.26v-3.892h26.26a6.723,6.723,0,0,1,0,13.447h-22.4v4.269Z" transform="translate(-1170.275 -180.172)" fill="#dda025"/>
    <path id="Path_2056" data-name="Path 2056" d="M1704.11,217.144l-4.447-4.269h-17.238v4.269h-3.867v-8.161h26.258a2.831,2.831,0,0,0,0-5.663h-26.258v-3.892h26.258a6.716,6.716,0,0,1,.406,13.419l4.473,4.3Z" transform="translate(-1516.485 -180.172)" fill="#dda025"/>
    <path id="Path_2057" data-name="Path 2057" d="M2063.645,217.145a7.108,7.108,0,0,1-7.1-7.1v-3.489a7.128,7.128,0,0,1,7.1-7.126h18.324a7.128,7.128,0,0,1,7.1,7.126v3.489a7.108,7.108,0,0,1-7.1,7.1Zm0-13.824a3.24,3.24,0,0,0-3.234,3.234v3.489a3.242,3.242,0,0,0,3.234,3.237h18.324a3.228,3.228,0,0,0,3.236-3.237v-3.489a3.225,3.225,0,0,0-3.236-3.234Z" transform="translate(-1857.973 -180.173)" fill="#dda025"/>
    <path id="Path_2058" data-name="Path 2058" d="M14.213,38.308.08,38.176,0,46.3l13.981.133L19.9,58.258l7.265-3.633L21.133,42.565l7.327-12.246L21.49,26.145Z" transform="translate(0 -23.621)" fill="#dda025"/>
  </g>
</svg>
