<svg xmlns="http://www.w3.org/2000/svg" xmlns:xlink="http://www.w3.org/1999/xlink" width="97.098" height="81.134" viewBox="0 0 97.098 81.134">
  <defs>
    <clipPath id="clip-path">
      <rect id="Rectangle_1846" data-name="Rectangle 1846" width="97.098" height="81.134" fill="none"/>
    </clipPath>
  </defs>
  <g id="Group_1362" data-name="Group 1362" transform="translate(0 0)">
    <g id="Group_1361" data-name="Group 1361" transform="translate(0 0)" clip-path="url(#clip-path)">
      <path id="Path_2031" data-name="Path 2031" d="M39.714,20.793A7.641,7.641,0,0,0,45.3,13.575c0-4.515-3.122-7.92-7.184-7.92h0a7.236,7.236,0,0,0-.909,0,7.646,7.646,0,0,0-.693,15.172,1.363,1.363,0,0,0,.211.016h2.625a1.417,1.417,0,0,0,.369-.05m-2.881-2.671a4.88,4.88,0,0,1-4-4.628,4.839,4.839,0,0,1,4.537-5.122,6.088,6.088,0,0,1,.667,0c2.677,0,4.545,2.138,4.545,5.167a4.918,4.918,0,0,1-3.432,4.581Z" transform="translate(10.86 2.035)"/>
      <path id="Path_2032" data-name="Path 2032" d="M96.584,72.31,81.936,26.273A5.8,5.8,0,0,0,76.4,21.7H62.555a14.917,14.917,0,0,0,1.207-5.642C63.762,7.354,56.726,0,48.4,0S33.037,7.354,33.037,16.081A14.862,14.862,0,0,0,34.243,21.7H21.074a6.664,6.664,0,0,0-6.18,4.449L.2,72.36c-.014.048-.027.1-.037.144a7.716,7.716,0,0,0,1.468,6.369,6.062,6.062,0,0,0,4.764,2.262H91.106c.045,0,.091,0,.136-.007a5.837,5.837,0,0,0,4.787-2.571,6.73,6.73,0,0,0,.554-6.248m-2.807,4.722A3.128,3.128,0,0,1,91.1,78.408a1.193,1.193,0,0,0-.12.005H6.393a3.349,3.349,0,0,1-2.659-1.266,4.966,4.966,0,0,1-.919-4.038L17.475,27.022a3.909,3.909,0,0,1,3.616-2.6h15.4a1.361,1.361,0,0,0,1.15-2.089,12.149,12.149,0,0,1-1.885-6.28c0-7.1,5.907-13.335,12.641-13.335S61.04,8.954,61.04,16.034a12.132,12.132,0,0,1-1.887,6.3,1.361,1.361,0,0,0,1.149,2.09H76.363a3.122,3.122,0,0,1,2.945,2.552L94,73.18l.033.094a4.027,4.027,0,0,1-.261,3.759" transform="translate(0 0)"/>
      <path id="Path_2033" data-name="Path 2033" d="M63.94,41.506h-10.5a1.36,1.36,0,0,0-1.361,1.361v5.906a1.359,1.359,0,0,0,1.361,1.361h2.581a8.088,8.088,0,0,1-4.545,1.871c-3.082,0-6.514-3.214-6.514-7.826,0-4.892,2.278-7.17,7.093-7.173a7.967,7.967,0,0,1,5.6,2.8,1.362,1.362,0,0,0,2.173-.124l3.934-5.906a1.361,1.361,0,0,0-.249-1.791,17.578,17.578,0,0,0-12.041-4.262c-9.688,0-16.455,6.766-16.455,16.454,0,8.3,5.306,17.111,15.162,17.111a15,15,0,0,0,6.558-1.6,1.36,1.36,0,0,0,1.3.948H63.94A1.359,1.359,0,0,0,65.3,59.273V42.867a1.36,1.36,0,0,0-1.361-1.361M62.579,57.912H59.395V57.3a1.36,1.36,0,0,0-2.161-1.1,12.286,12.286,0,0,1-7.074,2.365c-6.171,0-12.42-4.941-12.42-14.389,0-8.085,5.646-13.732,13.772-13.732.146-.005.291-.005.435-.005A15.054,15.054,0,0,1,60.8,33.312L58.479,36.8a10.77,10.77,0,0,0-6.344-2.509c-6.378,0-9.893,3.514-9.893,9.892,0,6.307,4.772,10.545,9.328,10.544h.005a10.885,10.885,0,0,0,6.751-3,1.367,1.367,0,0,0,.418-.983V48.773a1.36,1.36,0,0,0-1.361-1.361H54.8V44.227h7.777Z" transform="translate(12.636 10)"/>
      <path id="Path_2034" data-name="Path 2034" d="M40.462,28.869a1.364,1.364,0,0,0-1.17-.665H31.418a1.362,1.362,0,0,0-1.2.724L24.691,39.363h-.45v-9.8A1.36,1.36,0,0,0,22.88,28.2H15.668a1.36,1.36,0,0,0-1.361,1.361v29.53a1.36,1.36,0,0,0,1.361,1.361H22.88a1.36,1.36,0,0,0,1.361-1.361V48.645h.429L30.2,59.7a1.364,1.364,0,0,0,1.218.751h7.874A1.36,1.36,0,0,0,40.5,58.465L32.961,44.017l7.525-13.8a1.363,1.363,0,0,0-.024-1.347M30.223,43.351a1.363,1.363,0,0,0-.012,1.281l6.837,13.1H32.259l-5.53-11.059a1.364,1.364,0,0,0-1.218-.751H22.88a1.36,1.36,0,0,0-1.361,1.361v10.45H17.029V30.926h4.491v9.8a1.36,1.36,0,0,0,1.361,1.361h2.63a1.362,1.362,0,0,0,1.2-.724l5.524-10.435H37Z" transform="translate(5.162 10.177)"/>
    </g>
  </g>
</svg>
