<svg id="_Group__1_" data-name="_Group_ (1)" xmlns="http://www.w3.org/2000/svg" width="19" height="15.784" viewBox="0 0 19 15.784">
  <path id="Path_447" data-name="Path 447" d="M18.047,16.484H.994a1.1,1.1,0,0,1-.987-1.409l2.96-9.3a1.06,1.06,0,0,1,.987-.7h3.1A2.719,2.719,0,0,1,6.632,3.66,2.951,2.951,0,0,1,9.45.7a2.951,2.951,0,0,1,2.819,2.96,2.719,2.719,0,0,1-.423,1.409h3.241a.893.893,0,0,1,.846.7l2.96,9.3a.971.971,0,0,1-.846,1.409Z" transform="translate(0.019 -0.7)" fill="#231f20"/>
  <path id="Path_448" data-name="Path 448" d="M7.491,4.378H6.927A1.349,1.349,0,0,1,7.209,1.7,1.3,1.3,0,0,1,8.478,3.109,1.354,1.354,0,0,1,7.491,4.378Z" transform="translate(2.401 -0.291)" fill="#fefefe"/>
  <path id="Path_449" data-name="Path 449" d="M10.264,8.66h2.255v3.523H11.251V11.76a2.949,2.949,0,0,1-1.691.564A3.1,3.1,0,0,1,6.6,8.941,3.107,3.107,0,0,1,9.841,5.7a3.533,3.533,0,0,1,2.4.846l-.846,1.268a2,2,0,0,0-1.409-.7A1.633,1.633,0,0,0,8.15,8.941a1.885,1.885,0,0,0,1.691,1.973,2.04,2.04,0,0,0,1.268-.564V9.928h-.846Z" transform="translate(2.728 1.347)" fill="#fefefe"/>
  <path id="Path_450" data-name="Path 450" d="M6.082,8.9l1.691,3.241H6.082L4.814,9.605H4.25v2.537H2.7V5.8H4.25V8.2h.564L6.082,5.8H7.774L6.082,8.9Z" transform="translate(1.132 1.388)" fill="#fefefe"/>
</svg>
