<svg xmlns="http://www.w3.org/2000/svg" xmlns:xlink="http://www.w3.org/1999/xlink" width="67.806" height="65.5" viewBox="0 0 67.806 65.5">
  <defs>
    <clipPath id="clip-path">
      <rect id="Rectangle_394" data-name="Rectangle 394" width="67.806" height="65.5" fill="none" stroke="#fff" stroke-width="1"/>
    </clipPath>
  </defs>
  <g id="Group_727" data-name="Group 727" transform="translate(0 0)">
    <g id="Group_726" data-name="Group 726" transform="translate(0 0)" clip-path="url(#clip-path)">
      <path id="Path_778" data-name="Path 778" d="M67.806,53.374a6.038,6.038,0,0,1-1,.818C59.721,57.844,52.618,61.47,45.534,65.13a2,2,0,0,1-2.091-.013c-6.553-3.537-13.128-7.033-19.688-10.559a1.126,1.126,0,0,0-1.207-.014Q12.374,59.835,2.181,65.086a6.1,6.1,0,0,1-.714.342,1.052,1.052,0,0,1-1.443-.9,5.311,5.311,0,0,1-.01-.6q0-25.48-.015-50.961a1.667,1.667,0,0,1,1.047-1.7Q11.7,5.894,22.315.459A1.685,1.685,0,0,1,24.046.49c6.621,3.5,13.256,6.979,19.876,10.485a1.141,1.141,0,0,0,1.206-.016Q55.5,5.618,65.88.3c.934-.479,1.267-.409,1.926.376ZM65.766,2.712c-.307.147-.485.228-.658.317Q55.577,7.91,46.039,12.779a.957.957,0,0,0-.607,1.01q.021,24.128.012,48.256v.789c.332-.149.572-.245.8-.362q9.472-4.853,18.947-9.7a.965.965,0,0,0,.582-1.029q-.016-24.1-.009-48.191Zm-43.68.2c-.287.125-.486.2-.674.3q-9.4,4.777-18.8,9.546a.917.917,0,0,0-.568.968q.019,24.16.012,48.319c0,.228.021.457.034.73.191-.083.295-.121.392-.171q9.574-4.942,19.152-9.874c.467-.24.455-.569.455-.972q0-24.028,0-48.054V2.91M43.418,62.724v-.679q0-24.229.014-48.458a.928.928,0,0,0-.627-.935Q33.866,7.986,24.94,3.3c-.246-.129-.5-.249-.823-.411V3.5q0,24.2-.011,48.391a.83.83,0,0,0,.534.852q8.441,4.471,16.867,8.974c.6.317,1.2.627,1.91,1" transform="translate(0 0)" fill="#fff" stroke="#fff" stroke-width="1"/>
      <path id="Path_779" data-name="Path 779" d="M59.823,35.636c-.266-.247-.674-.455-.77-.761a1.932,1.932,0,0,1,.2-1.078c.046-.129.273-.205.428-.285q5.99-3.079,11.982-6.151c.722-.37,1.322-.242,1.6.318s.046,1.123-.668,1.493q-3.078,1.593-6.165,3.17-2.85,1.461-5.7,2.918c-.25.128-.52.217-.912.377" transform="translate(-10.419 -4.793)" fill="#fff" stroke="#fff" stroke-width="1"/>
      <path id="Path_780" data-name="Path 780" d="M73.349,37c0,.515-.418.761-.863.989q-4.408,2.256-8.813,4.518c-1.019.522-2.032,1.056-3.054,1.569-.715.358-1.317.214-1.6-.353s-.03-1.11.691-1.481c3.974-2.041,7.963-4.056,11.917-6.134.954-.5,1.767.086,1.719.893" transform="translate(-10.399 -6.341)" fill="#fff" stroke="#fff" stroke-width="1"/>
      <path id="Path_781" data-name="Path 781" d="M73.352,19.357c.018.615-.4.879-.872,1.12q-4.264,2.178-8.521,4.368c-1.136.582-2.269,1.171-3.412,1.74a1.039,1.039,0,0,1-1.528-.384,1.023,1.023,0,0,1,.581-1.413q6.076-3.13,12.162-6.241a1.012,1.012,0,0,1,1.59.81" transform="translate(-10.399 -3.246)" fill="#fff" stroke="#fff" stroke-width="1"/>
      <path id="Path_782" data-name="Path 782" d="M5.862,26.774c0-1.346.017-2.691-.007-4.036a1.393,1.393,0,0,1,.871-1.4c3.906-1.989,7.8-4,11.694-6.009,1.1-.567,1.765-.182,1.769,1.046.01,2.691-.007,5.381.01,8.072A1.362,1.362,0,0,1,19.36,25.8c-3.944,2.012-7.875,4.046-11.814,6.066-1.008.517-1.671.1-1.681-1.056-.012-1.346,0-2.69,0-4.036M7.923,29.3a.848.848,0,0,0,.22-.016c3.225-1.672,6.451-3.341,9.664-5.036a.83.83,0,0,0,.315-.62c.033-1.014.015-2.028.015-3.043V17.745C14.748,19.508,11.47,21.21,8.2,22.929a.617.617,0,0,0-.266.456c-.017,1.96-.012,3.921-.012,5.916" transform="translate(-1.033 -2.661)" fill="#fff" stroke="#fff" stroke-width="1"/>
      <path id="Path_783" data-name="Path 783" d="M20.235,49.379c0,.5-.366.781-.823,1.014q-4.145,2.118-8.285,4.248c-1.195.613-2.387,1.23-3.585,1.837-.766.388-1.35.265-1.643-.326-.286-.576-.049-1.1.685-1.48q5.961-3.065,11.927-6.119c.888-.454,1.7-.091,1.723.827" transform="translate(-1.021 -8.536)" fill="#fff" stroke="#fff" stroke-width="1"/>
      <path id="Path_784" data-name="Path 784" d="M20.228,40.867a4.006,4.006,0,0,1-.864.775C15.989,43.4,12.6,45.128,9.209,46.864c-.607.311-1.208.636-1.823.929a1.025,1.025,0,1,1-.931-1.812q6.072-3.129,12.158-6.238c.819-.418,1.633.027,1.615,1.123" transform="translate(-1.021 -6.989)" fill="#fff" stroke="#fff" stroke-width="1"/>
      <path id="Path_785" data-name="Path 785" d="M46.467,52.252c0,1.566,0,3.133,0,4.7-.006,1.224-.685,1.641-1.756,1.078-3.646-1.919-7.286-3.848-10.937-5.758A1.293,1.293,0,0,1,33,51.008c.008-3.221,0-6.441.008-9.663,0-1.048.713-1.485,1.635-1,3.689,1.93,7.368,3.88,11.058,5.81a1.338,1.338,0,0,1,.771,1.335c-.016,1.588,0,3.177,0,4.765m-11.4-9.407c0,2.489.012,4.844-.012,7.2a.831.831,0,0,0,.52.864c2.769,1.448,5.526,2.922,8.288,4.385.148.078.31.133.531.226,0-2.515.008-4.959-.017-7.4A.778.778,0,0,0,44,47.6c-.763-.439-1.548-.837-2.326-1.25l-6.6-3.5" transform="translate(-5.825 -7.087)" fill="#fff" stroke="#fff" stroke-width="1"/>
      <path id="Path_786" data-name="Path 786" d="M34.1,17.361a5.1,5.1,0,0,1,.585.23c3.669,1.923,7.34,3.842,11,5.792a1.568,1.568,0,0,1,.752.835,1.263,1.263,0,0,1-.338.977c-.357.39-.83.271-1.276.034q-4-2.118-8.012-4.22c-1.073-.564-2.149-1.121-3.217-1.693a.986.986,0,0,1-.566-1.21,1.018,1.018,0,0,1,1.078-.745" transform="translate(-5.82 -3.065)" fill="#fff" stroke="#fff" stroke-width="1"/>
      <path id="Path_787" data-name="Path 787" d="M46.488,34.95a1.017,1.017,0,0,1-1.59.824c-1.568-.8-3.12-1.635-4.679-2.456q-3.245-1.707-6.491-3.412a1.086,1.086,0,0,1-.725-1.2,1.015,1.015,0,0,1,1.544-.678c1.238.625,2.459,1.285,3.687,1.93L45.6,33.833c.46.242.9.5.887,1.117" transform="translate(-5.822 -4.923)" fill="#fff" stroke="#fff" stroke-width="1"/>
    </g>
  </g>
</svg>
