<svg xmlns="http://www.w3.org/2000/svg" width="19" height="19" viewBox="0 0 19 19">
  <path id="_Path__3_" data-name="_Path_ (3)" d="M19.127.6,18.105,2.638a.491.491,0,0,1-.17.341L14.7,6.214l1.362,11.237a.545.545,0,0,1-.341.511l-.511.681a.729.729,0,0,1-1.192-.17l-3.575-8L8.23,12.684V16.77a.545.545,0,0,1-.341.511l-.341.341a.642.642,0,0,1-1.022-.17L4.995,13.875,1.59,12.513c-.341-.17-.511-.851-.17-1.022l.341-.341a.545.545,0,0,1,.511-.341H6.357L8.57,8.6l-8-3.575A.729.729,0,0,1,.4,3.83l.511-.511a.981.981,0,0,1,.681-.341L12.827,4.341l3.235-3.235A.491.491,0,0,1,16.4.936L18.446-.086c.341-.17.851.341.681.681Z" transform="translate(-0.161 0.12)" fill="#231f20"/>
</svg>
