<svg xmlns="http://www.w3.org/2000/svg" xmlns:xlink="http://www.w3.org/1999/xlink" width="84.038" height="83.839" viewBox="0 0 84.038 83.839">
  <defs>
    <clipPath id="clip-path">
      <rect id="Rectangle_1845" data-name="Rectangle 1845" width="84.038" height="83.838" fill="none"/>
    </clipPath>
  </defs>
  <g id="Group_1360" data-name="Group 1360" transform="translate(0 0)">
    <g id="Group_1359" data-name="Group 1359" transform="translate(0 -0.001)" clip-path="url(#clip-path)">
      <path id="Path_2024" data-name="Path 2024" d="M82.455,6.013c-1.389,5.811-5.206,10.054-9.182,14.19-.91.946-1.89,1.826-2.794,2.777a1.138,1.138,0,0,0-.3.9c.91,3.177,1.868,6.34,2.816,9.506a1.773,1.773,0,0,0,.161.3,3.853,3.853,0,0,1,4.865.243,3.789,3.789,0,0,1,.456,5.309c-.572.694-1.243,1.309-1.878,1.949C75.5,42.3,75.5,42.295,76.189,43.8a4.1,4.1,0,0,1,3.312-.357A3.837,3.837,0,0,1,81.376,49.4a19.442,19.442,0,0,1-2.157,2.246,1.2,1.2,0,0,0-.381,1.42c1.1,3.575,2.133,7.173,3.251,10.744a2.06,2.06,0,0,1-.644,2.474c-.786.676-1.479,1.459-2.217,2.193-1.1,1.09-1.745,1.044-2.651-.194q-6.059-8.275-12.115-16.554Q62.4,48.911,60.347,46.1a4.141,4.141,0,0,1-.427-.7,1,1,0,0,1,.42-1.412,2.191,2.191,0,0,1,1.425.024c.285.089.483.5.692.782Q69.879,54.92,77.293,65.052c.241.33.484.659.824,1.12a13.485,13.485,0,0,0,1.332-1.461,1.32,1.32,0,0,0,.008-.965q-3.131-10.567-6.294-21.124-2.471-8.285-4.94-16.569c-.061-.2-.137-.4-.231-.672L56.18,36.2c.828,1.137,1.659,2.253,2.461,3.391a1.23,1.23,0,0,1-.139,1.824,1.261,1.261,0,0,1-1.853-.38c-.781-1.019-1.527-2.067-2.325-3.153-.2.155-.4.283-.573.433Q43.59,47.077,33.423,55.837a.777.777,0,0,0-.252,1.044c1.052,2.668,2.052,5.356,3.11,8.022a1.714,1.714,0,0,1-.457,2.128c-1.1,1.027-2.129,2.126-3.205,3.179a1.306,1.306,0,0,1-2.133.014q-9.18-9.163-18.343-18.344a1.288,1.288,0,0,1,0-2.071c1.128-1.154,2.288-2.278,3.418-3.431a1.5,1.5,0,0,1,1.8-.3c2.7,1.051,5.407,2.073,8.1,3.133a.828.828,0,0,0,1.112-.261Q35.271,38.83,44,28.743c.176-.2.341-.418.539-.66-3.387-2.48-6.739-4.937-10.093-7.391Q24.313,13.275,14.181,5.862c-1.335-.978-1.381-1.578-.207-2.754.7-.7,1.442-1.352,2.076-2.1A2.151,2.151,0,0,1,18.66.326C22.227,1.454,25.83,2.47,29.407,3.57a1.061,1.061,0,0,0,1.278-.34c.548-.61,1.141-1.181,1.735-1.746A3.929,3.929,0,0,1,37.509.941a3.9,3.9,0,0,1,1.209,4.972c-.042.1-.074.2-.109.294,1.485.691,1.485.691,2.535-.359.5-.5,1-1.012,1.51-1.508A3.875,3.875,0,0,1,48.815,9c-.037.07-.061.149-.118.29l2.355.7c2.383.709,4.773,1.391,7.141,2.144a1.231,1.231,0,0,0,1.42-.383c2.427-2.326,4.813-4.707,7.37-6.886a21,21,0,0,1,7.928-4.5A8.979,8.979,0,0,1,78.138.034c2.463.249,3.779,1.846,4.317,4.172ZM24.189,60.333c.168-.134.34-.266.506-.4,3.264-2.747,6.539-5.482,9.791-8.246,12.55-10.664,25-21.439,36.771-32.974a37.927,37.927,0,0,0,7.149-9.037A15.546,15.546,0,0,0,79.88,5.793c.51-2.28-1.008-3.726-3.32-3.3a6.841,6.841,0,0,0-2.178.677A61.042,61.042,0,0,0,68.36,6.948C64.5,9.855,61.326,13.515,58.028,17.017,47.39,28.31,37.309,40.1,27.285,51.935c-1.763,2.083-3.5,4.188-5.26,6.295l2.163,2.1m22-34.116c3.637-3.973,7.2-7.871,10.822-11.822-.259-.089-.41-.145-.564-.192C44.2,10.55,31.946,6.936,19.727,3.2c-1.561-.477-2.508-.2-3.347,1.039a.942.942,0,0,0-.05.125q14.9,10.906,29.863,21.857M26.056,62.026l5.68,5.693c.5-.533,1.031-1.157,1.625-1.717a.874.874,0,0,0,.252-1.128c-.775-1.924-1.5-3.868-2.245-5.8-.132-.344-.286-.678-.462-1.091-1.691,1.41-3.3,2.755-4.85,4.045M24.438,51.455c-2.5-.959-4.887-1.877-7.279-2.775a.58.58,0,0,0-.491.122c-.692.651-1.36,1.327-1.957,1.917l5.636,5.64,4.091-4.9m18.42-43.9c1.066.32,1.92.583,2.779.826.139.04.391.049.44-.027a3.808,3.808,0,0,0,.822-1.5c.033-.376-.427-.91-.806-1.177a1.227,1.227,0,0,0-1.56.3c-.524.467-1.023.964-1.675,1.581M74.838,39.513a27.382,27.382,0,0,0,1.836-2.054,1.185,1.185,0,0,0-.253-1.627,1.28,1.28,0,0,0-1.716-.14c-.52.345-.918.708-.61,1.451.29.7.46,1.446.743,2.37M32.83,4.568c1.012.3,1.813.564,2.628.774a.866.866,0,0,0,.658-.1,1.4,1.4,0,0,0,.252-1.973,1.306,1.306,0,0,0-1.888-.253c-.548.432-1.021.956-1.65,1.554m44.993,45c.6-.633,1.134-1.1,1.559-1.658a1.33,1.33,0,0,0-.542-2.058,1.478,1.478,0,0,0-1.594.3c-.444.345-.224.723-.109,1.106.21.7.418,1.4.686,2.307" transform="translate(1.584 0.001)"/>
      <path id="Path_2025" data-name="Path 2025" d="M56.4,75.327c-.752-.849-.762-1.4.024-2.186q5.035-5.053,10.089-10.09c.782-.779,1.679-.772,2.15-.01.433.7.109,1.251-.389,1.748q-2.693,2.7-5.393,5.394-2.58,2.575-5.168,5.145Z" transform="translate(7.608 8.512)"/>
      <path id="Path_2026" data-name="Path 2026" d="M1.452,20.2C.3,20.189-.289,19.245.141,18.454A3.5,3.5,0,0,1,.76,17.7q4.864-4.88,9.74-9.748a4.236,4.236,0,0,1,.616-.536,1.118,1.118,0,0,1,1.557.177,1.15,1.15,0,0,1,.114,1.5,3.271,3.271,0,0,1-.478.558q-4.927,4.931-9.867,9.851a6.151,6.151,0,0,1-.989.7" transform="translate(0 0.979)"/>
      <path id="Path_2027" data-name="Path 2027" d="M15.716,11.847a1.255,1.255,0,0,1,1.4,1.566,1.86,1.86,0,0,1-.431.681q-3.15,3.174-6.319,6.329a1.676,1.676,0,0,1-.184.164A1.248,1.248,0,0,1,8.473,20.5a1.185,1.185,0,0,1-.017-1.643,10.445,10.445,0,0,1,.854-.884c1.837-1.837,3.669-3.68,5.521-5.5a5.631,5.631,0,0,1,.885-.627" transform="translate(1.108 1.615)"/>
      <path id="Path_2028" data-name="Path 2028" d="M56.113,66.848c-1.176-.025-1.733-1.031-1.25-1.846a3.337,3.337,0,0,1,.534-.616q2.925-2.935,5.857-5.861a4.027,4.027,0,0,1,.483-.442,1.15,1.15,0,0,1,1.631.1,1.133,1.133,0,0,1,.052,1.632c-.345.42-.752.792-1.139,1.179-1.738,1.742-3.47,3.491-5.228,5.213a5.3,5.3,0,0,1-.941.637" transform="translate(7.452 7.875)"/>
      <path id="Path_2029" data-name="Path 2029" d="M22.934,16.463a5.928,5.928,0,0,1-.648,1.077q-2.146,2.2-4.342,4.351a1.263,1.263,0,0,1-1.89.136,1.276,1.276,0,0,1,.151-1.888c1.436-1.461,2.862-2.935,4.368-4.322a1.89,1.89,0,0,1,1.461-.334c.339.067.582.612.9.981" transform="translate(2.14 2.106)"/>
      <path id="Path_2030" data-name="Path 2030" d="M60.166,53.121a6.452,6.452,0,0,1-.693,1.129q-2.113,2.173-4.284,4.293a1.283,1.283,0,0,1-1.89.161,1.257,1.257,0,0,1,.125-1.886c1.436-1.461,2.889-2.905,4.345-4.347.41-.406.92-.7,1.468-.358a5.3,5.3,0,0,1,.928,1.008" transform="translate(7.212 7.081)"/>
    </g>
  </g>
</svg>
