<svg id="Component_138_13" data-name="Component 138 – 13" xmlns="http://www.w3.org/2000/svg" xmlns:xlink="http://www.w3.org/1999/xlink" width="19.036" height="15.784" viewBox="0 0 19.036 15.784">
  <defs>
    <clipPath id="clip-path">
      <rect id="Rectangle_2114" data-name="Rectangle 2114" width="19.036" height="15.784" transform="translate(0 0)" fill="none"/>
    </clipPath>
  </defs>
  <g id="Group_2540" data-name="Group 2540" clip-path="url(#clip-path)">
    <path id="Path_2730" data-name="Path 2730" d="M18.931,14.369l-2.96-9.3a.893.893,0,0,0-.846-.7H11.884a2.718,2.718,0,0,0,.423-1.409A2.952,2.952,0,0,0,9.488,0,2.951,2.951,0,0,0,6.67,2.96a2.71,2.71,0,0,0,.422,1.415h-3.1a1.059,1.059,0,0,0-.987.7l-2.96,9.3A1.116,1.116,0,0,0,0,14.618a1.1,1.1,0,0,0,1.03,1.166H18.085v-.006a.982.982,0,0,0,.418-.1.972.972,0,0,0,.428-1.3M8.241,2.533A1.349,1.349,0,0,1,9.629,1.409,1.3,1.3,0,0,1,10.9,2.735c0,.028,0,.055,0,.083a1.353,1.353,0,0,1-.987,1.269H9.347A1.349,1.349,0,0,1,8.241,2.533m.683,11H7.233L5.965,10.993H5.4V13.53H3.851V7.188H5.4v2.4h.564l1.268-2.4H8.925l-1.692,3.1Zm6.342,0H14v-.423a2.949,2.949,0,0,1-1.691.564,3.1,3.1,0,0,1-2.971-3.224c0-.053.006-.106.011-.159a3.107,3.107,0,0,1,2.967-3.241c.091,0,.183,0,.274,0a3.534,3.534,0,0,1,2.4.846l-.846,1.268a2,2,0,0,0-1.409-.7A1.633,1.633,0,0,0,10.9,10.288a1.885,1.885,0,0,0,1.691,1.973,2.042,2.042,0,0,0,1.268-.564v-.422H13.01V10.007h2.255Z" fill="#fff"/>
  </g>
</svg>
