<svg id="Component_136_13" data-name="Component 136 – 13" xmlns="http://www.w3.org/2000/svg" xmlns:xlink="http://www.w3.org/1999/xlink" width="18.505" height="18.506" viewBox="0 0 18.505 18.506">
  <defs>
    <clipPath id="clip-path">
      <rect id="Rectangle_2095" data-name="Rectangle 2095" width="18.505" height="18.506" fill="#fff"/>
    </clipPath>
  </defs>
  <g id="Group_2504" data-name="Group 2504" clip-path="url(#clip-path)">
    <path id="Path_2716" data-name="Path 2716" d="M.556,18.5A.56.56,0,0,1,0,17.944V13.933a.562.562,0,0,1,.549-.565.561.561,0,0,1,.564.564v3.459H4.568c.417.027.646.3.618.607a.555.555,0,0,1-.557.509Zm13.375,0a.56.56,0,0,1,.01-1.114h3.446V13.933a.559.559,0,1,1,1.118,0v4.013a.563.563,0,0,1-.561.556Zm-4.68-3.677a5.573,5.573,0,1,1,5.573-5.572,5.581,5.581,0,0,1-5.573,5.572M9.232,4.791a4.468,4.468,0,1,0,.019,0Zm.017,6.966a.557.557,0,0,1-.556-.51V9.807H7.244c-.417-.027-.645-.3-.618-.607a.557.557,0,0,1,.556-.51l1.511,0V7.243a.557.557,0,1,1,1.114,0V8.694h1.449a.56.56,0,0,1-.01,1.114H9.807v1.45a.557.557,0,0,1-.507.5ZM.557,5.083A.56.56,0,0,1,0,4.563v-4A.56.56,0,0,1,.559,0H4.6c.417.037.638.315.6.621a.559.559,0,0,1-.555.5l-3.533,0V4.571A.56.56,0,0,1,.6,5.082ZM17.947,5.07a.561.561,0,0,1-.556-.509V1.113H13.9A.56.56,0,0,1,13.938,0h4.007a.56.56,0,0,1,.559.559V4.571a.556.556,0,0,1-.507.5Z" transform="translate(0 0)" fill="#fff"/>
  </g>
</svg>
